<mxfile modified="2023-02-24T13:22:45.001Z" host="app.diagrams.net" agent="5.0 (Windows NT 10.0; Win64; x64) AppleWebKit/537.36 (KHTML, like Gecko) Chrome/109.0.0.0 Safari/537.36" etag="7cXdS1QIS1B5zWAereT0" version="20.8.23" type="github">
  <diagram id="WI9T0HZ2pTsCkuznbFz-" name="Page-1">
    <mxGraphModel dx="1434" dy="707" grid="1" gridSize="10" guides="1" tooltips="1" connect="1" arrows="1" fold="1" page="1" pageScale="1" pageWidth="827" pageHeight="1169" math="0" shadow="0">
      <root>
        <mxCell id="0" />
        <mxCell id="1" parent="0" />
        <mxCell id="AcxdMaKK0mU5kZiv2lnr-41" style="edgeStyle=elbowEdgeStyle;rounded=0;orthogonalLoop=1;jettySize=auto;elbow=vertical;html=1;strokeColor=#808080;startArrow=none;" parent="1" source="bxoRWXklIdyRBiyPACr1-1" edge="1">
          <mxGeometry relative="1" as="geometry">
            <mxPoint x="174.5" y="422" as="sourcePoint" />
            <mxPoint x="680" y="270" as="targetPoint" />
          </mxGeometry>
        </mxCell>
        <mxCell id="AcxdMaKK0mU5kZiv2lnr-48" style="rounded=0;orthogonalLoop=1;jettySize=auto;elbow=vertical;html=1;strokeColor=#808080;entryX=0;entryY=0.5;entryDx=0;entryDy=0;" parent="1" source="AcxdMaKK0mU5kZiv2lnr-32" target="bxoRWXklIdyRBiyPACr1-21" edge="1">
          <mxGeometry relative="1" as="geometry">
            <mxPoint x="980" y="310" as="targetPoint" />
          </mxGeometry>
        </mxCell>
        <mxCell id="AcxdMaKK0mU5kZiv2lnr-43" style="edgeStyle=elbowEdgeStyle;rounded=0;orthogonalLoop=1;jettySize=auto;elbow=vertical;html=1;strokeColor=#808080;" parent="1" source="AcxdMaKK0mU5kZiv2lnr-38" target="AcxdMaKK0mU5kZiv2lnr-37" edge="1">
          <mxGeometry relative="1" as="geometry" />
        </mxCell>
        <mxCell id="bxoRWXklIdyRBiyPACr1-38" style="edgeStyle=orthogonalEdgeStyle;rounded=0;orthogonalLoop=1;jettySize=auto;html=1;" edge="1" parent="1" source="AcxdMaKK0mU5kZiv2lnr-32" target="bxoRWXklIdyRBiyPACr1-37">
          <mxGeometry relative="1" as="geometry">
            <Array as="points">
              <mxPoint x="700" y="853" />
            </Array>
          </mxGeometry>
        </mxCell>
        <mxCell id="AcxdMaKK0mU5kZiv2lnr-32" value="Jenkins" style="shape=image;verticalLabelPosition=bottom;labelBackgroundColor=none;verticalAlign=top;aspect=fixed;imageAspect=0;image=data:image/svg+xml,PHN2ZyB4bWxuczpjYz0iaHR0cDovL2NyZWF0aXZlY29tbW9ucy5vcmcvbnMjIiB4bWxuczpkYz0iaHR0cDovL3B1cmwub3JnL2RjL2VsZW1lbnRzLzEuMS8iIHhtbG5zOmlua3NjYXBlPSJodHRwOi8vd3d3Lmlua3NjYXBlLm9yZy9uYW1lc3BhY2VzL2lua3NjYXBlIiB4bWxuczpyZGY9Imh0dHA6Ly93d3cudzMub3JnLzE5OTkvMDIvMjItcmRmLXN5bnRheC1ucyMiIHhtbG5zOnNvZGlwb2RpPSJodHRwOi8vc29kaXBvZGkuc291cmNlZm9yZ2UubmV0L0RURC9zb2RpcG9kaS0wLmR0ZCIgeG1sbnM6c3ZnPSJodHRwOi8vd3d3LnczLm9yZy8yMDAwL3N2ZyIgeG1sbnM9Imh0dHA6Ly93d3cudzMub3JnLzIwMDAvc3ZnIiB4bWxuczp4bGluaz0iaHR0cDovL3d3dy53My5vcmcvMTk5OS94bGluayIgdmVyc2lvbj0iMS4xIiBpZD0ic3ZnMjQ4MSIgaW5rc2NhcGU6dmVyc2lvbj0iMC45Mi4zICgyNDA1NTQ2LCAyMDE4LTAzLTExKSIgc29kaXBvZGk6ZG9jbmFtZT0iamVua2lucy5zdmciIHg9IjBweCIgeT0iMHB4IiB2aWV3Qm94PSIwIDAgNDMuMzkgNDcuODIiIHN0eWxlPSJlbmFibGUtYmFja2dyb3VuZDpuZXcgMCAwIDQzLjM5IDQ3LjgyOyIgeG1sOnNwYWNlPSJwcmVzZXJ2ZSI+JiN4YTs8c29kaXBvZGk6bmFtZWR2aWV3IGJvcmRlcmNvbG9yPSIjNjY2NjY2IiBib3JkZXJvcGFjaXR5PSIxIiBmaXQtbWFyZ2luLWJvdHRvbT0iMCIgZml0LW1hcmdpbi1sZWZ0PSIwIiBmaXQtbWFyZ2luLXJpZ2h0PSIwIiBmaXQtbWFyZ2luLXRvcD0iMCIgZ3JpZHRvbGVyYW5jZT0iMTAiIGd1aWRldG9sZXJhbmNlPSIxMCIgaWQ9Im5hbWVkdmlldzI0ODMiIGlua3NjYXBlOmN1cnJlbnQtbGF5ZXI9InN2ZzI0ODEiIGlua3NjYXBlOmN4PSIzOC45MDIzMDgiIGlua3NjYXBlOmN5PSI5LjMxNTMxNyIgaW5rc2NhcGU6cGFnZW9wYWNpdHk9IjAiIGlua3NjYXBlOnBhZ2VzaGFkb3c9IjIiIGlua3NjYXBlOndpbmRvdy1oZWlnaHQ9IjEwMTciIGlua3NjYXBlOndpbmRvdy1tYXhpbWl6ZWQ9IjEiIGlua3NjYXBlOndpbmRvdy13aWR0aD0iMTkyMCIgaW5rc2NhcGU6d2luZG93LXg9Ii04IiBpbmtzY2FwZTp3aW5kb3cteT0iLTgiIGlua3NjYXBlOnpvb209IjYuNTkyNzExNCIgb2JqZWN0dG9sZXJhbmNlPSIxMCIgcGFnZWNvbG9yPSIjZmZmZmZmIiBzaG93Z3JpZD0iZmFsc2UiPiYjeGE7CTwvc29kaXBvZGk6bmFtZWR2aWV3PiYjeGE7PGcgaWQ9ImcyNDc5IiB0cmFuc2Zvcm09InRyYW5zbGF0ZSgtMC43NSwtMC43NTA5OTM0NSkiPiYjeGE7CTx0aXRsZSBpZD0idGl0bGUyMzExIj5QYWdlLTE8L3RpdGxlPiYjeGE7CTxnIGlkPSJncm91cDE2NDEtMSIgdHJhbnNmb3JtPSJ0cmFuc2xhdGUoMC43NSwtMC43NSkiPiYjeGE7CQk8dGl0bGUgaWQ9InRpdGxlMjMxMyI+SmVua2luczwvdGl0bGU+JiN4YTsJCTxnIGlkPSJncm91cDE2NDItMiI+JiN4YTsJCQk8dGl0bGUgaWQ9InRpdGxlMjMxNSI+ZzE0NTI0PC90aXRsZT4mI3hhOwkJCTxnIGlkPSJzaGFwZTE2NDMtMyI+JiN4YTsJCQkJPHRpdGxlIGlkPSJ0aXRsZTIzMTciPnBhdGgxNDQ2MDwvdGl0bGU+JiN4YTsJCQkJPHBhdGggaWQ9InBhdGgyMzE5IiBpbmtzY2FwZTpjb25uZWN0b3ItY3VydmF0dXJlPSIwIiBzdHlsZT0iZmlsbDojMjgyNDI1OyIgZD0iTTQwLjY2LDM4LjEyYy0wLjcxLTAuNzUtMS41LTEuMzctMi4yNS0yLjA1ICAgICAgYy0wLjU3LTAuNDItMC43MS0xLjIyLTAuMzEtMS44MWMzLjM5LTYuMjYsMy44LTEyLjk4LDIuODYtMTkuODZjLTAuOTMtNi40Ny03LTEyLjQtMTMuNjgtMTIuODVjLTEuODgtMC4wOS0zLjc3LTAuMDUtNS42NSwwLjExICAgICAgYy00LjIyLDAuNzUtNy44OCwyLjY5LTExLjM4LDVDOC45Niw3LjQ5LDgsOC43NCw3LjUxLDEwLjE5Yy0wLjA4LDAuMjItMC4xOCwwLjUyLTAuMzUsMC42M2MtMS44NywxLjA2LTIuMzcsMi44Ni0yLjU2LDQuNzUgICAgICBjLTAuMDcsMS4wOC0wLjA1LDIuMTYsMC4wNywzLjIzYzAuMDgsMC42OS0wLjA1LDEuMzktMC4zNiwyLjAyYy0xLjAzLDIuMTYtMC42OSw0LjM1LDAuMTYsNi40OGMwLjYxLDEuOCwyLjA3LDMuMTcsMy45LDMuNjcgICAgICBjMC4yNiwwLjExLDAuNDYsMC4zMywwLjU2LDAuNTljMC40NywxLjEzLDAuODMsMi4zMSwxLjM1LDMuNDJjMC41MywxLjExLDAuNTYsMS41NS0wLjYxLDIuMjVjLTIuOCwxLjczLTUuNjQsMy4zOS04LjQ3LDUuMDkgICAgICBjLTAuNDMsMC4zMi0wLjg0LDAuNjktMS4yLDEuMDl2MS4xMmMwLjUyLDEuNDgsMS4yLDMuMjksMS43Miw0Ljc5aDM5LjQyYzAuNzUtMi4zNiwxLjUtNS4wNCwyLjI1LTcuNHYtMC43NSAgICAgIEM0Mi40NSw0MC4xNSw0MS42MSwzOS4xLDQwLjY2LDM4LjEyeiBNMzAuMjksNDMuNjRjMC4wNywwLjU4LTAuMzUsMS4xMS0wLjkzLDEuMTdjLTAuMDMsMC0wLjA2LDAuMDEtMC4wOSwwLjAxICAgICAgYy0wLjU3LDAuMDYtMC44Ny0wLjQ3LTAuODktMS43N2MwLjI2LTAuMjIsMC41Ni0wLjM4LDAuODgtMC40OEMyOS45Miw0Mi41NywzMC4yNyw0My4wMiwzMC4yOSw0My42NHoiLz4mI3hhOwkJCTwvZz4mI3hhOwkJCTxnIGlkPSJzaGFwZTE2NDQtNSIgdHJhbnNmb3JtPSJ0cmFuc2xhdGUoNS43LC04LjA0NzUpIj4mI3hhOwkJCQk8dGl0bGUgaWQ9InRpdGxlMjMyMiI+cGF0aDE0NDYyPC90aXRsZT4mI3hhOwkJCQk8cGF0aCBpZD0icGF0aDIzMjQiIGlua3NjYXBlOmNvbm5lY3Rvci1jdXJ2YXR1cmU9IjAiIHN0eWxlPSJmaWxsOiNFRUQ0QjU7IiBkPSJNMjguNzUsMTkuODNjMC43My0wLjIsMS40OS0wLjI5LDIuMjUtMC4yNiAgICAgIGMxLjY0LDAuMjMsMi45MiwxLjUyLDMuMTMsMy4xNmMxLjE1LDcuNTYsMC42OCwxNC45Mi00LjQ2LDIxYy0zLjEzLDMuNzUtOS4yMSw1LjU5LTE0LjMzLDEuMDVjLTEuMjctMS4yNy0yLjQ2LTIuNjEtMy41Ni00LjAzICAgICAgYy0wLjIxLTAuMjUtMC40MS0wLjUtMC43NS0wLjkxYzAuMzksMi4yNSwyLjE4LDQuNSw1LjQsNy4wNmMtMC44MiwwLjQtMS42OSwwLjctMi41OSwwLjljLTEuMy0wLjAyLTIuNTktMC4xNC0zLjg3LTAuMzggICAgICBDNy4zLDQ0LjU3LDYuOSw0MS4yNSw2LjU4LDM3LjM4YzAtMC4zNi0wLjQ2LTAuNjktMC43LTEuMDRjLTAuMzgsMC4wNS0wLjc1LDAuMTUtMS4xLDAuM2MtMS41NiwwLjk4LTIuNzcsMC43NS0zLjkyLTAuODIgICAgICBMMC42NywzNS42TDAsMzQuNzdjMC4wOC0wLjI0LDAuMDQtMS4zNiwwLjA4LTEuNjJjMC4xNC0xLjA4LDAuOC0wLjc1LDAuOTItMS44N2wwLjkzLTAuMzdjLTAuMzYsMi4xMi0wLjI4LDIuODQsMC4zNCwzLjU1ICAgICAgYzAuMDEtMC42OCwwLjA2LTEuMzYsMC4xNS0yLjAzYzAuMDctMC4zMywwLjQtMC42MywwLjYxLTAuOTRjMC4zMSwwLjE5LDAuNjEsMC40MiwwLjg3LDAuNjhjMC4yOCwwLjQxLDAuNTMsMC44NCwwLjc1LDEuMjggICAgICBjMC4yNi0xLjI5LTAuNjUtMy4xNi0xLjI3LTMuOTdjMC4zNywwLDEuMjUsMS4wMywxLjYxLDEuMDRsMC4wOCwwLjI2bDAuMzQsMC45NWMwLjI3LDAsMC4yNSwwLjEzLDAuNTUsMC4xMiAgICAgIGMxLjM4LTAuMDksMi4wNi0wLjYsMS43My0xLjg5Yy0wLjk0LTMuOC0wLjA1LTcuNC0wLjE5LTguOWMwLjI4LTAuNDMsMC43LTIuMjksMC45NC0yLjc1YzEuMzEtMi41NSwzLjM4LTMuOCw2LTUuMDQgICAgICBjMy43NS0xLjc4LDYuMzUtMS4yOCwxMC40MS0wLjYzYzAuMzQsMC4wNSwyLjMsMC44MywyLjY1LDAuODZjMS40MSwxLjIxLDIuNzIsMi41MiwzLjkzLDMuOTNjLTEuMjcsMC4yMy0xLjk2LTAuNTMtMi4yNSwwLjc1ICAgICAgQzI5LjAzLDE4LjY2LDI4LjE0LDE5Ljc0LDI4Ljc1LDE5LjgzeiBNMzEuODksMjQuMzNjLTAuMjEsMC4wNCwwLjcxLDIuMzcsMC44OCwyLjc3bC0xLjM2LDAuMjJsLTEuMzUsMC4xOWwtMC4xNywwLjI3ICAgICAgYzAuMzMsMC4zMywwLjYxLDAuOCwxLjAxLDAuOTZjMC43NSwwLjMzLDIuMzMtMC4yNSwyLjg1LTAuOTRjMC4xLTAuMTQsMC4yMy0wLjM4LDAuMTgtMC40OGMtMC42Mi0xLjI0LTEuMjctMi40NS0xLjk4LTMuODMgICAgICBMMzEuODksMjQuMzN6IE0xMi41NiwyMi42MmwwLjQxLDAuNzVjMC4wOC0wLjA3LDAuMTYtMC4xNCwwLjIzLTAuMjJjMC4wNS0wLjA4LDAuMDktMC4xNiwwLjEzLTAuMjRjMC45Mi0xLjg0LDIuMjUtMyw0LjQ1LTIuNzIgICAgICBjMC43NSwwLjA5LDAuNjEtMC40NiwwLjM2LTAuODRjLTAuMjItMC4yNS0wLjQ3LTAuNDgtMC43NS0wLjY2QzE1LjA2LDE3LjM0LDExLjk0LDIxLjk5LDEyLjU2LDIyLjYyeiBNMjAuMzksMjYuODlMMjEsMjcuNzUgICAgICBjLTEuMTYsMC43NS0yLjMzLDAuMDYtMy40MywwLjE1Yy0wLjM1LDAuNzUtMC4wOSwxLjI4LDAuNTgsMS4zOWMwLjkyLDAuMiwxLjg4LDAuMjMsMi44MSwwLjA4YzEuMjktMC4yOCwxLjUtMS41LDAuNjQtMi40OSAgICAgIGMtMC4zNi0wLjM4LTAuNjgtMC43OS0wLjk2LTEuMjNjLTAuMzQtMC41OC0wLjU5LTEuMjItMC45NS0xLjk1bC0wLjE4LDAuNmMtMC42MywwLjIzLDAuMjUsMi42NSwwLjg5LDIuNTlMMjAuMzksMjYuODl6ICAgICAgIE0yOC4wOSw0MS42MWMtMS42MSwwLTMuMDMsMC4wOC00LjQ0LDBjLTEuNzgtMC4xMS0zLjQzLTAuNTctNC40MS0yLjI5Yy0wLjA5LTAuMTctMC41Mi0wLjE0LTAuOTQtMC4yMyAgICAgIGMxLjU4LDIuNTIsMy4xNyw0LjU2LDYuMzEsNC4wNkMyNS44Myw0Mi45MiwyNy4xOSw0My4xMSwyOC4wOSw0MS42MXogTTI2LjkxLDM4LjQ1bC03LjM1LTAuNzVjMi4wMSwyLjI1LDQuNjQsMi4zMyw3LjM1LDIuNDMgICAgICBWMzguNDV6IE0yNy42NiwzOS44OGMyLjE0LDAsNC4wNC0xLjM5LDQuNjktMy40M2wtNC42OSwxLjlMMjcuNjYsMzkuODh6Ii8+JiN4YTsJCQk8L2c+JiN4YTsJCQk8ZyBpZD0ic2hhcGUxNjQ1LTciIHRyYW5zZm9ybT0idHJhbnNsYXRlKDQuNDU1LC0xLjU5KSI+JiN4YTsJCQkJPHRpdGxlIGlkPSJ0aXRsZTIzMjciPnBhdGgxNDQ2NDwvdGl0bGU+JiN4YTsJCQkJPHBhdGggaWQ9InBhdGgyMzI5IiBpbmtzY2FwZTpjb25uZWN0b3ItY3VydmF0dXJlPSIwIiBzdHlsZT0iZmlsbDojMzM1MDYxOyIgZD0iTTE1LjQ5LDQ5LjMySDAuNjEgICAgICBjLTAuMTQtMC44Mi0wLjIyLTEuNjYtMC40NS0yLjQ2Yy0wLjE2LTAuNTksMC0wLjg0LDAuNTQtMS4wNWMyLjAxLTAuODcsNC4wMi0xLjc2LDYtMi42N2MwLjc1LTAuMzMsMS40LTAuNzUsMi4xLTEuMTIgICAgICBjMS4zOSwwLjg4LDIuNzUsMS44Myw0LjIsMi42YzAuOTMsMC41LDEuNzcsMC44NCwxLjgzLDIuMTJDMTQuOTYsNDcuNjIsMTUuMTgsNDguNDksMTUuNDksNDkuMzJ6Ii8+JiN4YTsJCQk8L2c+JiN4YTsJCQk8ZyBpZD0ic2hhcGUxNjQ2LTkiIHRyYW5zZm9ybT0idHJhbnNsYXRlKDEzLjExNzUsLTM1LjI1KSI+JiN4YTsJCQkJPHRpdGxlIGlkPSJ0aXRsZTIzMzIiPnBhdGgxNDQ2NjwvdGl0bGU+JiN4YTsJCQkJPHBhdGggaWQ9InBhdGgyMzM0IiBpbmtzY2FwZTpjb25uZWN0b3ItY3VydmF0dXJlPSIwIiBzdHlsZT0iZmlsbDojRjNFMUNBOyIgZD0iTTIwLjAzLDQwLjcxYy0wLjM1LDAtMC43LDAtMS4wNi0wLjA5ICAgICAgQzE1LDM5Ljg1LDEwLjg5LDQwLjMzLDcuMjEsNDJjLTIuNTMsMS4yMy00LjU4LDMuMjgtNS44LDUuODJjLTAuMjMsMC40NS0xLjA0LDEuMTEtMS4zMywxLjVjLTAuMDgtMC45OCwwLjA1LTIuMDMsMC0zICAgICAgYzAuMDQtMC40MSwwLjE4LTAuOCwwLjQxLTEuMTRjMC40OS0wLjc4LDEuMDYtMS41MSwxLjcxLTIuMTdjMi4xNC0xLjk1LDQuNS0zLjcxLDcuMzUtNC4zNCAgICAgIEMxMy4yNywzNy44NSwxNi43NiwzOC44NiwyMC4wMyw0MC43MXoiLz4mI3hhOwkJCTwvZz4mI3hhOwkJCTxnIGlkPSJzaGFwZTE2NDctMTEiIHRyYW5zZm9ybT0idHJhbnNsYXRlKDYuNTk0MDUsLTI2Ljk3NzUpIj4mI3hhOwkJCQk8dGl0bGUgaWQ9InRpdGxlMjMzNyI+cGF0aDE0NDY4PC90aXRsZT4mI3hhOwkJCQk8cGF0aCBpZD0icGF0aDIzMzkiIGlua3NjYXBlOmNvbm5lY3Rvci1jdXJ2YXR1cmU9IjAiIHN0eWxlPSJmaWxsOiM2RDZCNkQ7IiBkPSJNNS45LDM4Ljc2YzAuMDcsMS4yNiwwLjA1LDIuNTItMC4wNCwzLjc4ICAgICAgYy0wLjMyLDIuMS0wLjc1LDMsMC4xNSw1LjgxYzAuMDgsMC4yNC0wLjEyLDAuNTgtMC4yMSwwLjk3Yy0wLjI1LTAuMTktMC4zMy0wLjIxLTAuMzQtMC4yNmMtMC43NS0yLjU5LTIuMjUtMy40MS01LjI1LTIuODMgICAgICBjLTAuNC0xLjM0LTAuMjctMi43OSwwLjM3LTQuMDNDMS41OSwzOS45MywzLjYxLDM5LjA3LDUuOSwzOC43NnoiLz4mI3hhOwkJCTwvZz4mI3hhOwkJCTxnIGlkPSJzaGFwZTE2NDgtMTMiIHRyYW5zZm9ybT0idHJhbnNsYXRlKDIuMDkyNSwtMS42MDUpIj4mI3hhOwkJCQk8dGl0bGUgaWQ9InRpdGxlMjM0MiI+cGF0aDE0NDcwPC90aXRsZT4mI3hhOwkJCQk8cGF0aCBpZD0icGF0aDIzNDQiIGlua3NjYXBlOmNvbm5lY3Rvci1jdXJ2YXR1cmU9IjAiIHN0eWxlPSJmaWxsOiM0ODcwODk7IiBkPSJNMTEuMTcsNDIuMDJjLTAuNywwLjM3LTEuMzgsMC44LTIuMSwxLjEyICAgICAgYy0xLjk5LDAuOTEtNCwxLjgtNiwyLjY3Yy0wLjUsMC4yMS0wLjcsMC40Ni0wLjU0LDEuMDVjMC4yMywwLjgsMC4zMSwxLjY0LDAuNDUsMi40NkgxLjFjLTAuMzctMC45NS0wLjc5LTEuODktMS4xLTIuODUgICAgICBjLTAuMDYtMC4zMSwwLjAyLTAuNjMsMC4yMy0wLjg3YzIuNTItMi4wOCw1LjI5LTMuODUsOC4yNS01LjI1YzAuNTEtMC4zMSwxLjE3LTAuMTcsMS41LDAuMzIgICAgICBDMTAuMzksNDEuMTcsMTAuNzksNDEuNTcsMTEuMTcsNDIuMDJ6Ii8+JiN4YTsJCQk8L2c+JiN4YTsJCQk8ZyBpZD0ic2hhcGUxNjQ5LTE1IiB0cmFuc2Zvcm09InRyYW5zbGF0ZSgzNi43OTUsLTEuNTgyNSkiPiYjeGE7CQkJCTx0aXRsZSBpZD0idGl0bGUyMzQ3Ij5wYXRoMTQ0NzI8L3RpdGxlPiYjeGE7CQkJCTxwYXRoIGlkPSJwYXRoMjM0OSIgaW5rc2NhcGU6Y29ubmVjdG9yLWN1cnZhdHVyZT0iMCIgc3R5bGU9ImZpbGw6IzMzNEY2MDsiIGQ9Ik0zLjYxLDQ5LjMyTDEsNDkuMjdjMC0wLjE1LDAtMC4zNy0wLjA2LTAuNDQgICAgICBDMCw0OC4wMiwwLjI5LDQ3LjEsMC41Miw0Ni4wOGMwLjMtMS42MSwwLjE1LTMuMjctMC40NS00LjhjMC4yMiwwLjEsMC40MywwLjIxLDAuNjMsMC4zM2MxLjM1LDAuOTQsMi43LDEuODksNC4wNCwyLjgzICAgICAgTDMuNjEsNDkuMzJ6Ii8+JiN4YTsJCQk8L2c+JiN4YTsJCQk8ZyBpZD0ic2hhcGUxNjUwLTE3IiB0cmFuc2Zvcm09InRyYW5zbGF0ZSgxMC40ODE2LC05Ljg0KSI+JiN4YTsJCQkJPHRpdGxlIGlkPSJ0aXRsZTIzNTIiPnBhdGgxNDQ3NDwvdGl0bGU+JiN4YTsJCQkJPHBhdGggaWQ9InBhdGgyMzU0IiBpbmtzY2FwZTpjb25uZWN0b3ItY3VydmF0dXJlPSIwIiBzdHlsZT0iZmlsbDojRjJFMEM5OyIgZD0iTTEuMDgsMzguMTZjMC4yNCwwLjM0LDAuOTMsMC42NywwLjk2LDEuMDMgICAgICBjMC4zMSwzLjg3LDEuNCw3LjI4LDQuMDgsMTAuMTNjLTEuNTMsMC4wMS0yLjkzLTAuODItMy42Ni0yLjE2Yy0wLjkzLTEuOTEtMS42Mi0zLjkzLTIuMzgtNS45MWMtMC4yNS0wLjU5LTAuMDktMS4yNywwLjM5LTEuNyAgICAgIEMwLjc1LDM5LjEyLDAuOTUsMzguNjUsMS4wOCwzOC4xNnoiLz4mI3hhOwkJCTwvZz4mI3hhOwkJCTxnIGlkPSJzaGFwZTE2NTEtMTkiIHRyYW5zZm9ybT0idHJhbnNsYXRlKDMxLjMyLC0zLjU3KSI+JiN4YTsJCQkJPHRpdGxlIGlkPSJ0aXRsZTIzNTciPnBhdGgxNDQ3NjwvdGl0bGU+JiN4YTsJCQkJPHBhdGggaWQ9InBhdGgyMzU5IiBpbmtzY2FwZTpjb25uZWN0b3ItY3VydmF0dXJlPSIwIiBzdHlsZT0iZmlsbDojQ0YzNzMzOyIgZD0iTTQuNyw0NC43M2MwLjExLDEuMjUsMC4yMywyLjQ5LDAuMywzLjc1ICAgICAgYzAsMC41Ny0wLjMxLDAuODQtMC45MSwwLjc1bC0zLjc1LTAuNTdDMC4yOCw0OC4wMywwLDQ3LjExLDAuNzYsNDcuMDdjMC43NS0wLjA1LDAuODItMS4zNSwwLjg2LTEuOSAgICAgIGMwLjA5LTEuMzEsMC41MS0wLjksMS44NC0xLjA4QzMuODgsNDQuMDQsNC4yNyw0NC43OSw0LjcsNDQuNzN6Ii8+JiN4YTsJCQk8L2c+JiN4YTsJCQk8ZyBpZD0ic2hhcGUxNjUyLTIxIiB0cmFuc2Zvcm09InRyYW5zbGF0ZSgyMC4wMSwtMC42MykiPiYjeGE7CQkJCTx0aXRsZSBpZD0idGl0bGUyMzYyIj5wYXRoMTQ0Nzg8L3RpdGxlPiYjeGE7CQkJCTxwYXRoIGlkPSJwYXRoMjM2NCIgaW5rc2NhcGU6Y29ubmVjdG9yLWN1cnZhdHVyZT0iMCIgc3R5bGU9ImZpbGw6I0QxMzgzMzsiIGQ9Ik0zLjgxLDQ4Ljg0Yy0wLjU1LDAuMjEtMS4xMSwwLjM3LTEuNjgsMC40OCAgICAgIEMxLjc2LDQ5LjI4LDEuNDEsNDkuMTcsMS4wOCw0OWMwLTAuMDQtMC4wMi0wLjA4LTAuMDUtMC4xMWwtMC4xNS0wLjc1Yy0wLjQ0LTEuNC0wLjcxLTIuODUtMC44MS00LjMxICAgICAgQzAsNDIuOTksMS4xLDQyLjE2LDEuNzIsNDIuMThjMS4yMiwwLjE1LDIuNDMsMC4zOSwzLjYyLDAuN2MwLjIyLDAsMC42OCwwLjMyLDAuNjIsMC41MmMtMC4yMiwwLjc1LTAuMTYsMS4xOCwwLjMyLDEuMzUgICAgICBDNi43Myw0NSw3LjIxLDQ1LjIsNy43LDQ1LjM2Yy0wLjE2LDAuMzktMC4yMiwwLjkzLTAuNTIsMS4xNUM2LjEsNDcuMzIsNC45NSw0OC4wNiwzLjgxLDQ4Ljg0eiIvPiYjeGE7CQkJPC9nPiYjeGE7CQkJPGcgaWQ9InNoYXBlMTY1My0yMyIgdHJhbnNmb3JtPSJ0cmFuc2xhdGUoMjAuMDY1NywtMS43ODUpIj4mI3hhOwkJCQk8dGl0bGUgaWQ9InRpdGxlMjM2NyI+cGF0aDE0NDgwPC90aXRsZT4mI3hhOwkJCQk8cGF0aCBpZD0icGF0aDIzNjkiIGlua3NjYXBlOmNvbm5lY3Rvci1jdXJ2YXR1cmU9IjAiIHN0eWxlPSJmaWxsOiNFNTNCMzk7IiBkPSJNNy42Niw0Ni40OWMtMC41MS0wLjA0LTEuMDEtMC4xMy0xLjUtMC4yNyAgICAgIGMtMC40Ny0wLjE3LTAuOTQtMC40NC0wLjc1LTEuMTdjLTAuMDMtMC4zMi0wLjIyLTAuNi0wLjUxLTAuNzVjLTEuMTItMC4yLTIuMjUtMC4zMS0zLjM4LTAuMzRjLTAuNjIsMC0wLjksMC43NS0wLjgzLDEuNjEgICAgICBjMC4xMSwxLjIzLDAuMTEsMi40OSwwLjE1LDMuNzVjLTAuODUtMS43NC0xLjEzLTMuNjktMC44MS01LjZjMC4yLTEuMjUsMC43LTEuNjYsMS44OS0xLjI4YzEuMTgsMC4zNywyLjQ5LDAuOTEsMy43MSwxLjQyICAgICAgYzAuNjQsMC4yNywxLjI1LDAuNjQsMi4xMSwxLjA4bC0xLjY1LDAuNzFMNy42Niw0Ni40OXoiLz4mI3hhOwkJCTwvZz4mI3hhOwkJCTxnIGlkPSJzaGFwZTE2NTQtMjUiIHRyYW5zZm9ybT0idHJhbnNsYXRlKDQuNzQsLTIyLjAyNzUpIj4mI3hhOwkJCQk8dGl0bGUgaWQ9InRpdGxlMjM3MiI+cGF0aDE0NDgyPC90aXRsZT4mI3hhOwkJCQk8cGF0aCBpZD0icGF0aDIzNzQiIGlua3NjYXBlOmNvbm5lY3Rvci1jdXJ2YXR1cmU9IjAiIHN0eWxlPSJmaWxsOiNFRkREQzc7IiBkPSJNNiw0NC40OUg0Ljg5Yy0wLjQ4LTAuMjUtMC45OC0wLjQ1LTEuNS0wLjU4ICAgICAgYy0wLjY3LTAuMS0xLjMsMC4zNi0xLjQsMS4wNGMtMC4wMiwwLjExLTAuMDIsMC4yMywwLDAuMzRjLTAuMTIsMS4wOS0wLjI0LDIuMTktMC4zOCwzLjI4Yy0wLjA2LDAuMjYtMC4xNCwwLjUxLTAuMjQsMC43NSAgICAgIEMwLjU1LDQ3Ljk4LDAsNDYuNTksMC41Myw0NS4wOWMwLjMxLTAuODMsMC44NS0xLjU1LDEuNTYtMi4wN0MzLjczLDQxLjg3LDUuMjYsNDIuNTEsNiw0NC40OXoiLz4mI3hhOwkJCTwvZz4mI3hhOwkJCTxnIGlkPSJzaGFwZTE2NTUtMjciIHRyYW5zZm9ybT0idHJhbnNsYXRlKDM1LjI3MjUsLTYuNDU3NSkiPiYjeGE7CQkJCTx0aXRsZSBpZD0idGl0bGUyMzc3Ij5wYXRoMTQ0ODQ8L3RpdGxlPiYjeGE7CQkJCTxwYXRoIGlkPSJwYXRoMjM3OSIgaW5rc2NhcGU6Y29ubmVjdG9yLWN1cnZhdHVyZT0iMCIgc3R5bGU9ImZpbGw6IzQ3NkY4NzsiIGQ9Ik02LjI1LDQ5LjMyYy0xLjM0LTAuOTUtMi42OC0xLjg5LTQuMDMtMi44MyAgICAgIGMtMC4yLTAuMTMtMC40MS0wLjI0LTAuNjMtMC4zNEwwLDQ0LjU5bDEuMzMtMS4xNmwyLjI1LDIuMDJjMC40NCwwLjQ3LDAuOTEsMC45MSwxLjQxLDEuMzJDNS45MSw0Ny4yNyw2LjQxLDQ4LjI5LDYuMjUsNDkuMzJ6Ii8+JiN4YTsJCQk8L2c+JiN4YTsJCQk8ZyBpZD0ic2hhcGUxNjU2LTI5IiB0cmFuc2Zvcm09InRyYW5zbGF0ZSg4LjgyLC0zOC44NjUpIj4mI3hhOwkJCQk8dGl0bGUgaWQ9InRpdGxlMjM4MiI+cGF0aDE0NDg2PC90aXRsZT4mI3hhOwkJCQk8cGF0aCBpZD0icGF0aDIzODQiIGlua3NjYXBlOmNvbm5lY3Rvci1jdXJ2YXR1cmU9IjAiIHN0eWxlPSJmaWxsOiNEM0QwQ0Y7IiBkPSJNMS45Nyw0OC41N0wwLDQ5LjMyICAgICAgYzAuOTgtMi42Miw3LjA1LTYuNTEsOC43NC01LjU5bC0yLjQ0LDEuNUM0LjUzLDQ1Ljg0LDMuMDEsNDcuMDEsMS45Nyw0OC41N3oiLz4mI3hhOwkJCTwvZz4mI3hhOwkJCTxnIGlkPSJzaGFwZTE2NTctMzEiIHRyYW5zZm9ybT0idHJhbnNsYXRlKDYuMzE1LC0zMC4wNzUpIj4mI3hhOwkJCQk8dGl0bGUgaWQ9InRpdGxlMjM4NyI+cGF0aDE0NDg4PC90aXRsZT4mI3hhOwkJCQk8cGF0aCBpZD0icGF0aDIzODkiIGlua3NjYXBlOmNvbm5lY3Rvci1jdXJ2YXR1cmU9IjAiIHN0eWxlPSJmaWxsOiNEQ0Q5RDg7IiBkPSJNNi4xOCw0MS44NWMtMi4zMSwwLjMzLTQuMzEsMS4xOC01LjM1LDMuNDMgICAgICBjLTAuNjQsMS4yNS0wLjc4LDIuNy0wLjM3LDQuMDRjLTAuMTUsMC0wLjQ0LDAtMC40Ni0wLjA2Yy0xLjA4LTMuMjcsMC43LTYuOCwzLjk3LTcuODhjMC4zMi0wLjExLDAuNjUtMC4xOSwwLjk4LTAuMjQgICAgICBsMS4wOS0wLjE2TDYuMTgsNDEuODV6Ii8+JiN4YTsJCQk8L2c+JiN4YTsJCQk8ZyBpZD0ic2hhcGUxNjU4LTMzIiB0cmFuc2Zvcm09InRyYW5zbGF0ZSgzMC44NTUsLTQuMjIyNSkiPiYjeGE7CQkJCTx0aXRsZSBpZD0idGl0bGUyMzkyIj5wYXRoMTQ0OTA8L3RpdGxlPiYjeGE7CQkJCTxwYXRoIGlkPSJwYXRoMjM5NCIgaW5rc2NhcGU6Y29ubmVjdG9yLWN1cnZhdHVyZT0iMCIgc3R5bGU9ImZpbGw6I0U1M0IzOTsiIGQ9Ik01LjE3LDQ1LjM4Yy0wLjQyLDAuMDctMC44NCwwLjE0LTEuMjcsMC4xOSAgICAgIGMtMS4zNCwwLjE4LTEuMzMsMC4xOC0xLjQyLDEuNWMtMC4wNCwwLjU1LTAuMTMsMS4wOC0wLjgyLDEuMTJjLTAuNjksMC4wNC0wLjkxLDAuNS0wLjg1LDEuMTNDMC43LDQ4LjksMC40LDQ4LjQxLDAuNTMsNDguMDkgICAgICBjMC4xNC0wLjMxLDAuNjgtMC41NCwxLjA4LTAuODJjLTAuNDQtMC4yNC0xLjYxLDAuMzQtMS40NC0xLjFjMC45NS0wLjU1LDEuOTgtMS4yMywzLjA5LTEuNzVDNC4zNyw0My45LDQuODQsNDQuMjYsNS4xNyw0NS4zOHogICAgICAiLz4mI3hhOwkJCTwvZz4mI3hhOwkJCTxnIGlkPSJzaGFwZTE2NTktMzUiIHRyYW5zZm9ybT0idHJhbnNsYXRlKDI4LjUsLTEuNTk3NSkiPiYjeGE7CQkJCTx0aXRsZSBpZD0idGl0bGUyMzk3Ij5wYXRoMTQ0OTI8L3RpdGxlPiYjeGE7CQkJCTxwYXRoIGlkPSJwYXRoMjM5OSIgaW5rc2NhcGU6Y29ubmVjdG9yLWN1cnZhdHVyZT0iMCIgc3R5bGU9ImZpbGw6I0Y3RjdGNzsiIGQ9Ik0xLjExLDQ5LjMyQzAsNDcuOTEsMS43OCw0Ny45MSwyLjg0LDQ3LjkxICAgICAgYzAuODYsMCwxLjE2LDAuNjYsMS4yNSwxLjM4Yy0wLjQ3LTAuMDktMC45My0wLjItMS4zOS0wLjI1Yy0wLjI3LDAtMC41MywwLjAzLTAuNzksMC4xQzEuNjQsNDkuMTcsMS4zNyw0OS4yNSwxLjExLDQ5LjMyeiIvPiYjeGE7CQkJPC9nPiYjeGE7CQkJPGcgaWQ9InNoYXBlMTY2MC0zNyIgdHJhbnNmb3JtPSJ0cmFuc2xhdGUoMjcuODc3NSwtMS41OTc1KSI+JiN4YTsJCQkJPHRpdGxlIGlkPSJ0aXRsZTI0MDIiPnBhdGgxNDQ5NDwvdGl0bGU+JiN4YTsJCQkJPHBhdGggaWQ9InBhdGgyNDA0IiBpbmtzY2FwZTpjb25uZWN0b3ItY3VydmF0dXJlPSIwIiBzdHlsZT0iZmlsbDojRDdENEQzOyIgZD0iTTQuODksNDkuMjhINC43MWMtMC40OC0wLjI3LTAuOTUtMC41NS0xLjQzLTAuOCAgICAgIGMtMC45NS0wLjQ3LTEuMzItMC4yNi0xLjU2LDAuODRsLTEuMDctMC4wNkwwLDQ4LjE4YzAuNTgtMC44OSwxLjY1LTAuODYsMi40My0wLjg5czEuNjQsMC42MiwyLjQ2LDFMNC44OSw0OS4yOHoiLz4mI3hhOwkJCTwvZz4mI3hhOwkJCTxnIGlkPSJzaGFwZTE2NjEtMzkiIHRyYW5zZm9ybT0idHJhbnNsYXRlKDEwLjc5MjUsLTM5LjU3KSI+JiN4YTsJCQkJPHRpdGxlIGlkPSJ0aXRsZTI0MDciPnBhdGgxNDQ5NjwvdGl0bGU+JiN4YTsJCQkJPHBhdGggaWQ9InBhdGgyNDA5IiBpbmtzY2FwZTpjb25uZWN0b3ItY3VydmF0dXJlPSIwIiBzdHlsZT0iZmlsbDojNkQ2QjZEOyIgZD0iTTAsNDkuMjdjMS4wNS0xLjU0LDIuNTctMi42OSw0LjMzLTMuMjkgICAgICBDMy43OCw0Ny4wMiwzLjEsNDgsMi4zMSw0OC44OEMxLjgyLDQ5LjMyLDAuNzksNDkuMTQsMCw0OS4yN3oiLz4mI3hhOwkJCTwvZz4mI3hhOwkJCTxnIGlkPSJzaGFwZTE2NjItNDEiIHRyYW5zZm9ybT0idHJhbnNsYXRlKDE1LjI0NzUsLTcuMTMyNSkiPiYjeGE7CQkJCTx0aXRsZSBpZD0idGl0bGUyNDEyIj5wYXRoMTQ0OTg8L3RpdGxlPiYjeGE7CQkJCTxwYXRoIGlkPSJwYXRoMjQxNCIgaW5rc2NhcGU6Y29ubmVjdG9yLWN1cnZhdHVyZT0iMCIgc3R5bGU9ImZpbGw6I0U5RThFODsiIGQ9Ik0zLjk1LDQ3Ljk3bC0wLjMxLDEuMzUgICAgICBDMS44LDQ5LjIyLDAuMTksNDguMzYsMCw0Ny4zN0wzLjk1LDQ3Ljk3eiIvPiYjeGE7CQkJPC9nPiYjeGE7CQkJPGcgaWQ9InNoYXBlMTY2My00MyIgdHJhbnNmb3JtPSJ0cmFuc2xhdGUoMzMuODQsLTM3LjUzNzUpIj4mI3hhOwkJCQk8dGl0bGUgaWQ9InRpdGxlMjQxNyI+cGF0aDE0NTAwPC90aXRsZT4mI3hhOwkJCQk8cGF0aCBpZD0icGF0aDI0MTkiIGlua3NjYXBlOmNvbm5lY3Rvci1jdXJ2YXR1cmU9IjAiIHN0eWxlPSJmaWxsOiNGMkUwQzk7IiBkPSJNMC42MSw0OS4zMkMwLDQ5LjIzLDAuMDEsNDguNzksMC4xLDQ4LjM0ICAgICAgYzAuMjMtMS4xOSwxLjIyLTIuMSwyLjQzLTIuMjFsMS4wOSwxLjNjLTAuNjYsMC4wNS0xLjMyLDAuMTUtMS45NiwwLjNDMS4wMSw0Ny45OCwwLjU5LDQ4LjYyLDAuNjEsNDkuMzJ6Ii8+JiN4YTsJCQk8L2c+JiN4YTsJCQk8ZyBpZD0ic2hhcGUxNjY0LTQ1IiB0cmFuc2Zvcm09InRyYW5zbGF0ZSgyNi41MTI1LC03LjYwOTI0KSI+JiN4YTsJCQkJPHRpdGxlIGlkPSJ0aXRsZTI0MjIiPnBhdGgxNDUwMjwvdGl0bGU+JiN4YTsJCQkJPHBhdGggaWQ9InBhdGgyNDI0IiBpbmtzY2FwZTpjb25uZWN0b3ItY3VydmF0dXJlPSIwIiBzdHlsZT0iZmlsbDojREVDOEFEOyIgZD0iTTAsNDguNDFsNC44Mi0wLjUzICAgICAgYy0wLjksMS40NS0yLjgsMS44OS00LjI1LDAuOTlDMC4zNyw0OC43NCwwLjE3LDQ4LjU5LDAsNDguNDF6Ii8+JiN4YTsJCQk8L2c+JiN4YTsJCQk8ZyBpZD0ic2hhcGUxNjY1LTQ3IiB0cmFuc2Zvcm09InRyYW5zbGF0ZSgyOC4zOCwtNC40MjUpIj4mI3hhOwkJCQk8dGl0bGUgaWQ9InRpdGxlMjQyNyI+cGF0aDE0NTA0PC90aXRsZT4mI3hhOwkJCQk8cGF0aCBpZD0icGF0aDI0MjkiIGlua3NjYXBlOmNvbm5lY3Rvci1jdXJ2YXR1cmU9IjAiIHN0eWxlPSJmaWxsOiNFNTNCMzk7IiBkPSJNMCw0Ny40OWMwLjI1LTAuMjMsMC41NS0wLjQsMC44OC0wLjUgICAgICBjMC42Ni0wLjA3LDEuMDEsMC40MSwxLjAzLDEuMDRjMC4wOCwwLjU4LTAuMzIsMS4xMS0wLjg5LDEuMmMtMC4wNCwwLjAxLTAuMDgsMC4wMS0wLjEzLDAuMDFDMC4zMiw0OS4zMiwwLjAyLDQ4LjgsMCw0Ny40OXoiLz4mI3hhOwkJCTwvZz4mI3hhOwkJCTxnIGlkPSJzaGFwZTE2NjYtNDkiIHRyYW5zZm9ybT0idHJhbnNsYXRlKDMzLjQ1LC0xLjUpIj4mI3hhOwkJCQk8dGl0bGUgaWQ9InRpdGxlMjQzMiI+cGF0aDE0NTA2PC90aXRsZT4mI3hhOwkJCQk8cGF0aCBpZD0icGF0aDI0MzQiIGlua3NjYXBlOmNvbm5lY3Rvci1jdXJ2YXR1cmU9IjAiIHN0eWxlPSJmaWxsOiM3RUFBQkQ7IiBkPSJNMy43NSw0OS4zMkgwYzAuMDEtMC44NiwwLjcyLTEuNTQsMS41OC0xLjUzICAgICAgYzAuMjgsMCwwLjU1LDAuMDgsMC43OCwwLjIzQzIuODQsNDguMjQsMy4zMyw0OC45NiwzLjc1LDQ5LjMyeiIvPiYjeGE7CQkJPC9nPiYjeGE7CQkJPGcgaWQ9InNoYXBlMTY2Ny01MSIgdHJhbnNmb3JtPSJ0cmFuc2xhdGUoNi4zNDUsLTIxLjUyNSkiPiYjeGE7CQkJCTx0aXRsZSBpZD0idGl0bGUyNDM3Ij5wYXRoMTQ1MDg8L3RpdGxlPiYjeGE7CQkJCTxwYXRoIGlkPSJwYXRoMjQzOSIgaW5rc2NhcGU6Y29ubmVjdG9yLWN1cnZhdHVyZT0iMCIgc3R5bGU9ImZpbGw6I0VGRERDNzsiIGQ9Ik0wLDQ5LjA5bDAuMTksMC4yM0wwLDQ5LjA5eiIvPiYjeGE7CQkJPC9nPiYjeGE7CQkJPGcgaWQ9InNoYXBlMTY2OC01MyIgdHJhbnNmb3JtPSJ0cmFuc2xhdGUoMTAuNzMyNSwtMjYuNTY1KSI+JiN4YTsJCQkJPHRpdGxlIGlkPSJ0aXRsZTI0NDIiPnBhdGgxNDUxMDwvdGl0bGU+JiN4YTsJCQkJPHBhdGggaWQ9InBhdGgyNDQ0IiBpbmtzY2FwZTpjb25uZWN0b3ItY3VydmF0dXJlPSIwIiBzdHlsZT0iZmlsbDojRUZEREM3OyIgZD0iTTAuMDcsNDkuMzJMMCw0OS4wNUwwLjA3LDQ5LjMyeiIvPiYjeGE7CQkJPC9nPiYjeGE7CQkJPGcgaWQ9InNoYXBlMTY2OS01NSIgdHJhbnNmb3JtPSJ0cmFuc2xhdGUoMjguNTYsLTIwLjA3KSI+JiN4YTsJCQkJPHRpdGxlIGlkPSJ0aXRsZTI0NDciPnBhdGgxNDUxMjwvdGl0bGU+JiN4YTsJCQkJPHBhdGggaWQ9InBhdGgyNDQ5IiBpbmtzY2FwZTpjb25uZWN0b3ItY3VydmF0dXJlPSIwIiBzdHlsZT0iZmlsbDojMkIyNzI2OyIgZD0iTTAuOSw0Ni44OWMwLjI3LDEuMTgsMC41MSwxLjUsMS41OSwxLjI3ICAgICAgYzEuNTgtMC40MSwzLjExLTAuOTUsNC41OS0xLjYzYzAuNjctMC4yOSwwLjYxLTEuMjYsMC0yLjA0Yy0wLjk1LTEuMjItMS45NS0yLjQtMi44NS0zLjY1Yy0wLjk2LTEuMjItMS40My0yLjc2LTEuMzEtNC4zMSAgICAgIGMwLjI1LDAuMjIsMC40NywwLjMxLDAuNTIsMC40NmMwLjk1LDIuNzEsMi44Nyw0Ljc0LDQuNzcsNi43NWMwLjg4LDAuODIsMC45NCwyLjIsMC4xMiwzLjA4Yy0wLjE0LDAuMTUtMC4zMSwwLjI5LTAuNDksMC40ICAgICAgYy0xLjk1LDEuMi0zLjk5LDIuMS02LjM2LDEuOTVjLTAuODQtMC4wNS0xLjA0LTAuNjMtMS4xMS0xLjIzQzAuMzEsNDcuNDcsMCw0Ni43OCwwLjg1LDQ2LjU2TDAuOSw0Ni44OXoiLz4mI3hhOwkJCTwvZz4mI3hhOwkJCTxnIGlkPSJzaGFwZTE2NzAtNTciIHRyYW5zZm9ybT0idHJhbnNsYXRlKDIzLjEwNzUsLTMwLjMyMjUpIj4mI3hhOwkJCQk8dGl0bGUgaWQ9InRpdGxlMjQ1MiI+cGF0aDE0NTE0PC90aXRsZT4mI3hhOwkJCQk8cGF0aCBpZD0icGF0aDI0NTQiIGlua3NjYXBlOmNvbm5lY3Rvci1jdXJ2YXR1cmU9IjAiIHN0eWxlPSJmaWxsOiNGNUUyQ0I7IiBkPSJNMi4wOSw0Ni41NmwwLjkzLDIuNjEgICAgICBjLTAuNjMsMC4xMi0xLjI3LDAuMTctMS45MSwwLjE1QzAuNjUsNDkuMjUsMC4yNCw0OC45OCwwLDQ4LjU3Yy0wLjEtMC40NiwwLjA0LTAuOTMsMC4zNy0xLjI3ICAgICAgQzAuOTEsNDYuOTcsMS40OSw0Ni43MywyLjA5LDQ2LjU2eiIvPiYjeGE7CQkJPC9nPiYjeGE7CQkJPGcgaWQ9InNoYXBlMTY3MS01OSIgdHJhbnNmb3JtPSJ0cmFuc2xhdGUoMTcuNjQ3NSwtMzQuNzQ3NSkiPiYjeGE7CQkJCTx0aXRsZSBpZD0idGl0bGUyNDU3Ij5wYXRoMTQ1MTY8L3RpdGxlPiYjeGE7CQkJCTxwYXRoIGlkPSJwYXRoMjQ1OSIgaW5rc2NhcGU6Y29ubmVjdG9yLWN1cnZhdHVyZT0iMCIgc3R5bGU9ImZpbGw6I0VGRERDNzsiIGQ9Ik01LjQ2LDQ1LjRjLTEuOTEtMC41My00LjU3LDEuNy00Ljg0LDMuOTIgICAgICBjLTAuNjItMC42My0wLjM4LTEuMzMtMC4xLTEuOThDMS4wNyw0Ni4wMSwyLjIsNDUsMy41OCw0NC41OWMwLjcyLTAuMzEsMS41NCwwLjAyLDEuODUsMC43NEM1LjQ0LDQ1LjM1LDUuNDUsNDUuMzgsNS40Niw0NS40eiIvPiYjeGE7CQkJPC9nPiYjeGE7CQkJPGcgaWQ9InNoYXBlMTY3Mi02MSIgdHJhbnNmb3JtPSJ0cmFuc2xhdGUoMzUuNjEsLTMwLjI3NzUpIj4mI3hhOwkJCQk8dGl0bGUgaWQ9InRpdGxlMjQ2MiI+cGF0aDE0NTE4PC90aXRsZT4mI3hhOwkJCQk8cGF0aCBpZD0icGF0aDI0NjQiIGlua3NjYXBlOmNvbm5lY3Rvci1jdXJ2YXR1cmU9IjAiIHN0eWxlPSJmaWxsOiNGNUUyQ0I7IiBkPSJNMS45OCw0Ni41MmwwLjQ2LDEuNzYgICAgICBjLTAuMDYsMC4wNy0wLjExLDAuMTctMC4xOCwwLjJjLTAuNiwwLjI0LTEuMjMsMC44NC0xLjgzLDAuMTVjLTAuNDMtMC41LDAuMTItMS41OCwwLjkzLTEuOTdDMS41Niw0Ni41OSwxLjc3LDQ2LjU0LDEuOTgsNDYuNTIgICAgICB6Ii8+JiN4YTsJCQk8L2c+JiN4YTsJCQk8ZyBpZD0ic2hhcGUxNjczLTYzIiB0cmFuc2Zvcm09InRyYW5zbGF0ZSgyMi40NzgzLC0xNy4xMTUpIj4mI3hhOwkJCQk8dGl0bGUgaWQ9InRpdGxlMjQ2NyI+cGF0aDE0NTIwPC90aXRsZT4mI3hhOwkJCQk8cGF0aCBpZD0icGF0aDI0NjkiIGlua3NjYXBlOmNvbm5lY3Rvci1jdXJ2YXR1cmU9IjAiIHN0eWxlPSJmaWxsOiNGNUUyQ0I7IiBkPSJNMC4wNSw0OS4yOWMtMC4wNy0wLjY5LTAuMDctMS40LDAtMi4wOSAgICAgIGMwLTAuMTYsMC43NS0wLjIxLDEuNC0wLjM3bC0wLjk4LDIuNDlMMC4wNSw0OS4yOXoiLz4mI3hhOwkJCTwvZz4mI3hhOwkJCTxnIGlkPSJzaGFwZTE2NzQtNjUiIHRyYW5zZm9ybT0idHJhbnNsYXRlKDI5LjM4NSwtMjIuNSkiPiYjeGE7CQkJCTx0aXRsZSBpZD0idGl0bGUyNDcyIj5wYXRoMTQ1MjI8L3RpdGxlPiYjeGE7CQkJCTxwYXRoIGlkPSJwYXRoMjQ3NCIgaW5rc2NhcGU6Y29ubmVjdG9yLWN1cnZhdHVyZT0iMCIgc3R5bGU9ImZpbGw6I0Y1RTJDQjsiIGQ9Ik0wLjA3LDQ5LjMyTDAsNDkuMDIgICAgICBjMC4wMy0wLjQsMC4xLTAuNzksMC4yMi0xLjE3YzAuMTEtMC4yNiwwLjM0LTAuNDUsMC42MS0wLjUzYzAuMjYsMC4wMywwLjQ5LDAuMiwwLjYsMC40NGMwLjA1LDAuMjktMC4wMywwLjU4LTAuMjMsMC43OSAgICAgIEMwLjg1LDQ4Ljg1LDAuNDcsNDkuMTEsMC4wNyw0OS4zMnoiLz4mI3hhOwkJCTwvZz4mI3hhOwkJPC9nPiYjeGE7CTwvZz4mI3hhOzwvZz4mI3hhOzwvc3ZnPg==;" parent="1" vertex="1">
          <mxGeometry x="670" y="245.5" width="43" height="48" as="geometry" />
        </mxCell>
        <mxCell id="AcxdMaKK0mU5kZiv2lnr-38" value="Engineer" style="shape=image;verticalLabelPosition=bottom;labelBackgroundColor=none;verticalAlign=top;aspect=fixed;imageAspect=0;image=data:image/svg+xml,PHN2ZyB4bWxuczpjYz0iaHR0cDovL2NyZWF0aXZlY29tbW9ucy5vcmcvbnMjIiB4bWxuczpkYz0iaHR0cDovL3B1cmwub3JnL2RjL2VsZW1lbnRzLzEuMS8iIHhtbG5zOmlua3NjYXBlPSJodHRwOi8vd3d3Lmlua3NjYXBlLm9yZy9uYW1lc3BhY2VzL2lua3NjYXBlIiB4bWxuczpyZGY9Imh0dHA6Ly93d3cudzMub3JnLzE5OTkvMDIvMjItcmRmLXN5bnRheC1ucyMiIHhtbG5zOnNvZGlwb2RpPSJodHRwOi8vc29kaXBvZGkuc291cmNlZm9yZ2UubmV0L0RURC9zb2RpcG9kaS0wLmR0ZCIgeG1sbnM6c3ZnPSJodHRwOi8vd3d3LnczLm9yZy8yMDAwL3N2ZyIgeG1sbnM9Imh0dHA6Ly93d3cudzMub3JnLzIwMDAvc3ZnIiB4bWxuczp4bGluaz0iaHR0cDovL3d3dy53My5vcmcvMTk5OS94bGluayIgdmVyc2lvbj0iMS4xIiBpZD0ic3ZnMzExODM2IiBpbmtzY2FwZTp2ZXJzaW9uPSIwLjkyLjMgKDI0MDU1NDYsIDIwMTgtMDMtMTEpIiBzb2RpcG9kaTpkb2NuYW1lPSJkZXZlbG9wZXJfNS5zdmciIHg9IjBweCIgeT0iMHB4IiB2aWV3Qm94PSIwIDAgMTkuMjkgNDguMDciIHN0eWxlPSJlbmFibGUtYmFja2dyb3VuZDpuZXcgMCAwIDE5LjI5IDQ4LjA3OyIgeG1sOnNwYWNlPSJwcmVzZXJ2ZSI+JiN4YTs8c29kaXBvZGk6bmFtZWR2aWV3IGJvcmRlcmNvbG9yPSIjNjY2NjY2IiBib3JkZXJvcGFjaXR5PSIxIiBmaXQtbWFyZ2luLWJvdHRvbT0iMCIgZml0LW1hcmdpbi1sZWZ0PSIwIiBmaXQtbWFyZ2luLXJpZ2h0PSIwIiBmaXQtbWFyZ2luLXRvcD0iMCIgZ3JpZHRvbGVyYW5jZT0iMTAiIGd1aWRldG9sZXJhbmNlPSIxMCIgaWQ9Im5hbWVkdmlldzMxMTgzOCIgaW5rc2NhcGU6Y3VycmVudC1sYXllcj0ic3ZnMzExODM2IiBpbmtzY2FwZTpjeD0iMTIuODYzMjIyIiBpbmtzY2FwZTpjeT0iMzIuMDQ4MDkyIiBpbmtzY2FwZTpwYWdlb3BhY2l0eT0iMCIgaW5rc2NhcGU6cGFnZXNoYWRvdz0iMiIgaW5rc2NhcGU6d2luZG93LWhlaWdodD0iMTAxNyIgaW5rc2NhcGU6d2luZG93LW1heGltaXplZD0iMSIgaW5rc2NhcGU6d2luZG93LXdpZHRoPSIxOTIwIiBpbmtzY2FwZTp3aW5kb3cteD0iLTgiIGlua3NjYXBlOndpbmRvdy15PSItOCIgaW5rc2NhcGU6em9vbT0iMTMuNTI3NzczIiBvYmplY3R0b2xlcmFuY2U9IjEwIiBwYWdlY29sb3I9IiNmZmZmZmYiIHNob3dncmlkPSJmYWxzZSI+JiN4YTsJPC9zb2RpcG9kaTpuYW1lZHZpZXc+JiN4YTs8ZyBpZD0iZzMxMTgzNCIgdHJhbnNmb3JtPSJ0cmFuc2xhdGUoLTAuMDAxNzcxNzcsMC4wMDM0KSI+JiN4YTsJPHRpdGxlIGlkPSJ0aXRsZTMxMTYyOSI+UGFnZS0xPC90aXRsZT4mI3hhOwk8ZyBpZD0iZ3JvdXA3MDY1LTEiPiYjeGE7CQk8dGl0bGUgaWQ9InRpdGxlMzExNjMxIj5EZXZlbG9wZXIgIzU8L3RpdGxlPiYjeGE7CQk8ZyBpZD0ic2hhcGU3MDY2LTIiIHRyYW5zZm9ybT0idHJhbnNsYXRlKDExLjQ3MzcsLTEuMzYyMjQpIj4mI3hhOwkJCTx0aXRsZSBpZD0idGl0bGUzMTE2MzMiPlNoZWV0LjcwNjY8L3RpdGxlPiYjeGE7CQkJPHBhdGggaWQ9InBhdGgzMTE2MzUiIGlua3NjYXBlOmNvbm5lY3Rvci1jdXJ2YXR1cmU9IjAiIGQ9Ik0wLDQ3Ljk3bDIuMzEsMC4xbDAuMDItMi45MmgtMi4xTDAsNDcuOTd6Ii8+JiN4YTsJCTwvZz4mI3hhOwkJPGcgaWQ9InNoYXBlNzA2Ny00IiB0cmFuc2Zvcm09InRyYW5zbGF0ZSgxMC44OTA0KSI+JiN4YTsJCQk8dGl0bGUgaWQ9InRpdGxlMzExNjM4Ij5TaGVldC43MDY3PC90aXRsZT4mI3hhOwkJCTxwYXRoIGlkPSJwYXRoMzExNjQwIiBpbmtzY2FwZTpjb25uZWN0b3ItY3VydmF0dXJlPSIwIiBzdHlsZT0iZmlsbDojNUMyRDkxOyIgZD0iTTAsNDcuODZjMi4xNiwwLjExLDIuMTYsMC4xMSwyLjE2LDAuMTEgICAgIGMwLjEyLTAuMzMsMC4xMi0wLjMzLDAuMTItMC4zM2MwLjcxLDAuMTEsMi4xNiwwLjMzLDIuOTgsMC40M2MwLjU2LDAsMS4zNCwwLDEuNzktMC4yMWMwLDAsMC4xNC0wLjExLDAuMTQtMC4yMiAgICAgYzAtMC44Ni0zLjQyLTEuMzItNC4zMS0yLjNjLTAuMTIsMC0wLjEyLDAtMC4xMiwwQzIuNSw0NS41NiwyLjI4LDQ2LDEuNzMsNDZjLTAuNTYsMC0xLjAxLTAuNTUtMS4yNC0wLjY2ICAgICBDMC4xMiw0NS41NiwwLDQ3Ljc1LDAsNDcuODZ6Ii8+JiN4YTsJCTwvZz4mI3hhOwkJPGcgaWQ9InNoYXBlNzA2OC02IiB0cmFuc2Zvcm09InRyYW5zbGF0ZSgzLjExMjg1LC0wLjM4OTIxMykiPiYjeGE7CQkJPHRpdGxlIGlkPSJ0aXRsZTMxMTY0MyI+U2hlZXQuNzA2ODwvdGl0bGU+JiN4YTsJCQk8cGF0aCBpZD0icGF0aDMxMTY0NSIgaW5rc2NhcGU6Y29ubmVjdG9yLWN1cnZhdHVyZT0iMCIgc3R5bGU9ImZpbGw6IzVDMkQ5MTsiIGQ9Ik0xLjE1LDQ1LjM0YzAsMC40OCwwLDAuNDgsMCwwLjQ4ICAgICBDMCw0Ny4zNSwwLDQ3LjM1LDAsNDcuMzVjMCwwLjUxLDAsMC41MSwwLDAuNTFjMCwwLjExLDAuMTEsMC4yMSwwLjIyLDAuMjFjMi40NywwLDIuNDcsMCwyLjQ3LDBjMC4yNSwwLDAuNDItMC4yMSwwLjQyLTAuNDMgICAgIGMwLTEuNDksMC0xLjQ5LDAtMS40OWMwLTAuNDgsMC0wLjQ4LDAtMC40OGMwLTAuMzMsMC0wLjMzLDAtMC4zM0wxLjE1LDQ1LjM0eiIvPiYjeGE7CQk8L2c+JiN4YTsJCTxnIGlkPSJzaGFwZTcwNjktOCIgdHJhbnNmb3JtPSJ0cmFuc2xhdGUoNC4yNzk0OCwtMy4xMTM3KSI+JiN4YTsJCQk8dGl0bGUgaWQ9InRpdGxlMzExNjQ4Ij5TaGVldC43MDY5PC90aXRsZT4mI3hhOwkJCTxwYXRoIGlkPSJwYXRoMzExNjUwIiBpbmtzY2FwZTpjb25uZWN0b3ItY3VydmF0dXJlPSIwIiBzdHlsZT0iZmlsbDojMDA3OEQ3OyIgZD0iTTcuMyw0OC4wN2MtMC4xOC0xLjE3LDAuMjMtNi45NC0wLjAzLTExLjA4ICAgICBjLTAuMjYtNC4wNC0xLjI1LTUuNjktMS4yNS01LjY5cy0wLjMzLTAuMjItMC40MSwwLjFjLTAuMDMsMC4xNS0xLjg4LDUuMy0xLjg4LDUuM3MtMS4yMSw5LjM1LTEuNywxMS4zN2MtMi4wMywwLTIuMDMsMC0yLjAzLDAgICAgIGMwLjUyLTEyLjAxLDAuNTItMTIuMDEsMC41Mi0xMi4wMWMwLjg5LTguNjIsMC44OS04LjYyLDAuODktOC42MmM4LjM3LTMuMzEsOC4zNy0zLjMxLDguMzctMy4zMWMtMC4yMywxLjE4LDAuOTEsNy4yLDAuODgsMTIuNzUgICAgIGMtMC4wOCw0LjY5LTEuMTQsMTAuMzEtMS4xMSwxMS4xOUw3LjMsNDguMDd6Ii8+JiN4YTsJCTwvZz4mI3hhOwkJPGcgaWQ9InNoYXBlNzA3MC0xMCIgdHJhbnNmb3JtPSJ0cmFuc2xhdGUoMy44OTA2LC0yLjkxOTA5KSI+JiN4YTsJCQk8dGl0bGUgaWQ9InRpdGxlMzExNjUzIj5TaGVldC43MDcwPC90aXRsZT4mI3hhOwkJCTxwYXRoIGlkPSJwYXRoMzExNjU1IiBpbmtzY2FwZTpjb25uZWN0b3ItY3VydmF0dXJlPSIwIiBzdHlsZT0iZmlsbDojMDA3OEQ3OyIgZD0iTTIuNjEsNDguMDdjLTIuNjEsMC0yLjYxLDAtMi42MSwwICAgICBjMC41Ni0xMi4zNCwwLjU2LTEyLjM0LDAuNTYtMTIuMzRjMC44Ny04Ljc5LDAuODctOC43OSwwLjg3LTguNzljOS4wNS0zLjU5LDkuMDUtMy41OSw5LjA1LTMuNTljLTAuMTEsMC41Ni0wLjExLDAuNTYtMC4xMSwwLjU2ICAgICBjLTAuMDgsMC40OCwwLjA3LDEuOTQsMC4yNSwzLjYzYzAuMjksMi40NCwwLjY2LDUuODEsMC42Miw5LjAzYy0wLjA0LDMuMDgtMC41MSw2LjU2LTAuODQsOC44M2MtMC4xNCwxLjE3LTAuMjUsMi4wNS0wLjI1LDIuMzQgICAgIGMwLjAzLDAuMzMsMC4wMywwLjMzLDAuMDMsMC4zM2MtMi44MywwLTIuODMsMC0yLjgzLDBjLTAuMDctMC4yNi0wLjA3LTAuMjYtMC4wNy0wLjI2Yy0wLjA3LTAuNTQtMC4wNC0xLjkzLDAtMy43ICAgICBjMC4wNy0yLjI2LDAuMTEtNS4wOC0wLjA0LTcuNDNjLTAuMTgtMy4xOC0wLjg1LTQuODMtMS4wNy01LjM0Yy0wLjI5LDAuODEtMS41NCw0LjI5LTEuODMsNS4xMmMtMC4wNywwLjctMS4yMiw5LjM4LTEuNjksMTEuMzUgICAgIEwyLjYxLDQ4LjA3eiBNMC42Nyw0Ny40NWMxLjQzLDAsMS40MywwLDEuNDMsMGMwLjUxLTIuNDEsMS42Mi0xMS4wMiwxLjY2LTExLjFjMC0wLjA3LDAtMC4wNywwLTAuMDdjMC43Mi0yLDEuODMtNS4xMiwxLjg3LTUuMjYgICAgIGMwLjA3LTAuMjIsMC4yMi0wLjMsMC4yOS0wLjMzYzAuMjktMC4xMSwwLjU1LDAuMDMsMC41OSwwLjA3YzAuMDgsMC4wNCwwLjA4LDAuMDQsMC4wOCwwLjA0YzAuMDMsMC4wNywwLjAzLDAuMDcsMC4wMywwLjA3ICAgICBjMC4wNCwwLjA3LDAuOTksMS43NSwxLjI0LDUuNzhjMC4xNSwyLjM4LDAuMDgsNS4yLDAuMDQsNy40NmMtMC4wNCwxLjQ0LTAuMDcsMi43Mi0wLjA0LDMuMzRjMS42OSwwLDEuNjksMCwxLjY5LDAgICAgIGMwLTAuNDQsMC4xMS0xLjEzLDAuMjctMi4xMmMwLjI5LTIuMjcsMC43Ni01LjcyLDAuOC04Ljc2YzAuMDQtMy4xOC0wLjMzLTYuNTItMC41OC04Ljk2Yy0wLjE4LTEuNTEtMC4yOS0yLjYtMC4yOS0zLjMgICAgIGMtNy43MiwzLjA4LTcuNzIsMy4wOC03LjcyLDMuMDhjLTAuODUsOC4zOC0wLjg1LDguMzgtMC44NSw4LjM4TDAuNjcsNDcuNDV6Ii8+JiN4YTsJCTwvZz4mI3hhOwkJPGcgaWQ9InNoYXBlNzA3MS0xMiIgdHJhbnNmb3JtPSJ0cmFuc2xhdGUoNC44NjI3OSwtMjMuNzQyKSI+JiN4YTsJCQk8dGl0bGUgaWQ9InRpdGxlMzExNjU4Ij5TaGVldC43MDcxPC90aXRsZT4mI3hhOwkJCTxwYXRoIGlkPSJwYXRoMzExNjYwIiBpbmtzY2FwZTpjb25uZWN0b3ItY3VydmF0dXJlPSIwIiBzdHlsZT0iZmlsbDojRTZFN0U4OyIgZD0iTTcuNTgsNDguMDdIMC4zNmwtMC4xMy04Ljg4TDAsMzQuNTRsNi44OS0wLjQ4ICAgICBMNy41OCw0OC4wN3oiLz4mI3hhOwkJPC9nPiYjeGE7CQk8ZyBpZD0ic2hhcGU3MDcyLTE0IiB0cmFuc2Zvcm09InRyYW5zbGF0ZSg0Ljg2Mjc5LC0zNS44MDc2KSI+JiN4YTsJCQk8dGl0bGUgaWQ9InRpdGxlMzExNjYzIj5TaGVldC43MDcyPC90aXRsZT4mI3hhOwkJCTxwYXRoIGlkPSJwYXRoMzExNjY1IiBpbmtzY2FwZTpjb25uZWN0b3ItY3VydmF0dXJlPSIwIiBzdHlsZT0iZmlsbDojRTZFN0U4OyIgZD0iTTAuNjYsNDguMDdMMCw0NS4ybDQuNjQtMS4wMmwwLjYxLDIuODQgICAgIEwwLjY2LDQ4LjA3eiIvPiYjeGE7CQk8L2c+JiN4YTsJCTxnIGlkPSJzaGFwZTcwNzMtMTYiIHRyYW5zZm9ybT0idHJhbnNsYXRlKDkuOTE4MTgsLTIzLjc0MikiPiYjeGE7CQkJPHRpdGxlIGlkPSJ0aXRsZTMxMTY2OCI+U2hlZXQuNzA3MzwvdGl0bGU+JiN4YTsJCQk8cGF0aCBpZD0icGF0aDMxMTY3MCIgaW5rc2NhcGU6Y29ubmVjdG9yLWN1cnZhdHVyZT0iMCIgc3R5bGU9ImZpbGw6I0U2RTdFODsiIGQ9Ik0wLDQ4LjA3aDQuNjdsMC4xNy04Ljg0bDAuMjItNC42M0wwLDM0LjI1ICAgICBWNDguMDd6Ii8+JiN4YTsJCTwvZz4mI3hhOwkJPGcgaWQ9InNoYXBlNzA3NC0xOCIgdHJhbnNmb3JtPSJ0cmFuc2xhdGUoOS41MjkzMSwtMzUuODA3NikiPiYjeGE7CQkJPHRpdGxlIGlkPSJ0aXRsZTMxMTY3MyI+U2hlZXQuNzA3NDwvdGl0bGU+JiN4YTsJCQk8cGF0aCBpZD0icGF0aDMxMTY3NSIgaW5rc2NhcGU6Y29ubmVjdG9yLWN1cnZhdHVyZT0iMCIgc3R5bGU9ImZpbGw6I0U2RTdFODsiIGQ9Ik01LjA2LDQ4LjA3bC01LjA2LTFsMC42LTIuODlsNS4wNCwxLjA0ICAgICBMNS4wNiw0OC4wN3oiLz4mI3hhOwkJPC9nPiYjeGE7CQk8ZyBpZD0ic2hhcGU3MDc1LTIwIiB0cmFuc2Zvcm09InRyYW5zbGF0ZSg3LjE5NjA1LC0zMi4zMDQ2KSI+JiN4YTsJCQk8dGl0bGUgaWQ9InRpdGxlMzExNjc4Ij5TaGVldC43MDc1PC90aXRsZT4mI3hhOwkJCTxwYXRoIGlkPSJwYXRoMzExNjgwIiBpbmtzY2FwZTpjb25uZWN0b3ItY3VydmF0dXJlPSIwIiBzdHlsZT0iZmlsbDojMDBCMjk0OyIgZD0iTTQuNDEsNDYuMDJjLTAuMTgsMC0wLjM2LDAuMDQtMC41MiwwLjE1ICAgICBjMC0wLjExLTAuMDQtMC4xOC0wLjA3LTAuMjZjLTAuMDgtMC4xOC0wLjA4LTAuMTgtMC4wOC0wLjE4Yy0wLjAzLTAuMTgtMC4xMS0wLjMzLTAuMTEtMC40YzAuMDgtMC4xNCwwLjA4LTAuMTQsMC4wOC0wLjE0ICAgICBjMC0wLjA0LDAtMC4wNC0wLjA0LTAuMDhjLTAuMTEtMC4xMi0wLjExLTAuMTItMC4xMS0wLjEyYzAtMC4wNC0wLjA0LTAuMDQtMC4wNC0wLjA0Yy0wLjQxLDAtMC40MSwwLTAuNDEsMCAgICAgYy0wLjA0LDAtMC4wNywwLjA0LTAuMDcsMC4wOGMwLDAuMDUsMC4wMywwLjA4LDAuMDcsMC4wOGMwLjM4LDAsMC4zOCwwLDAuMzgsMGMwLjA3LDAuMDgsMC4wNywwLjA4LDAuMDcsMC4wOCAgICAgYy0wLjA3LDAuMTQtMC4wNywwLjE0LTAuMDcsMC4xNHMwLDAsMCwwLjA0YzAuMDMsMCwwLjA3LDAuMTQsMC4xNCwwLjMzYy0xLjUyLDAtMS41MiwwLTEuNTIsMGMtMC4wMy0wLjExLTAuMDMtMC4xMS0wLjAzLTAuMTEgICAgIGMwLjE0LTAuMDQsMC4zNC0wLjExLDAuNDEtMC4yMmMtMC45MywwLTAuOTMsMC0wLjkzLDBjMCwwLjE0LDAuMTUsMC4yNSwwLjM0LDAuMjVjMC4wMywwLDAuMDMsMCwwLjA3LDBsMCwwICAgICBjMC4wNCwwLjE1LDAuMDQsMC4xNSwwLjA0LDAuMTVjLTAuMzcsMC40NC0wLjM3LDAuNDQtMC4zNywwLjQ0Yy0wLjE5LTAuMTEtMC4zOC0wLjE5LTAuNTktMC4xOUMwLjQ5LDQ2LjAyLDAsNDYuNDYsMCw0Ny4wNSAgICAgYzAsMC41NCwwLjQ5LDEuMDIsMS4wNSwxLjAyYzAuNDcsMCwwLjg4LTAuMzMsMC45OS0wLjc3YzAuMjIsMC4wNCwwLjIyLDAuMDQsMC4yMiwwLjA0YzAsMC4wNywwLjA3LDAuMTgsMC4xNiwwLjIyICAgICBjLTAuMDQsMC4yMi0wLjA0LDAuMjItMC4wNCwwLjIyYy0wLjEyLDAtMC4xMiwwLTAuMTIsMGMtMC4wNCwwLTAuMDcsMC0wLjA3LDAuMDNjMCwwLjA0LDAuMDMsMC4wOCwwLjA3LDAuMDhjMC4zLDAsMC4zLDAsMC4zLDAgICAgIGMwLjA0LDAsMC4wNC0wLjA0LDAuMDQtMC4wOGMwLTAuMDMsMC0wLjAzLTAuMDQtMC4wM2MtMC4wNywwLTAuMDcsMC0wLjA3LDBjMC4wNC0wLjIyLDAuMDQtMC4yMiwwLjA0LTAuMjIgICAgIGMwLjE0LDAsMC4yNS0wLjExLDAuMjUtMC4yNmMwLTAuMDMtMC4wMy0wLjA3LTAuMDctMC4xMWMxLjAzLTEuMTMsMS4wMy0xLjEzLDEuMDMtMS4xM2MwLjA0LDAuMDQsMC4wNCwwLjExLDAuMDgsMC4xNSAgICAgYy0wLjI2LDAuMjItMC40NCwwLjQ3LTAuNDQsMC44NGMwLDAuNTQsMC40NCwxLjAyLDEuMDMsMS4wMmMwLjYsMCwxLjAzLTAuNDgsMS4wMy0xLjAyQzUuNDQsNDYuNDYsNS4wMSw0Ni4wMiw0LjQxLDQ2LjAyeiAgICAgIE0xLjA1LDQ3LjkyYy0wLjQ5LDAtMC44OS0wLjQtMC44OS0wLjg3YzAtMC40OCwwLjQtMC44OCwwLjg5LTAuODhjMC4xOCwwLDAuMzIsMC4wNywwLjQ3LDAuMTVjLTAuNDcsMC42Mi0wLjQ3LDAuNjItMC40NywwLjYyICAgICBsMCwwYy0wLjA0LDAtMC4xMSwwLjAzLTAuMTEsMC4xMWgwLjAzYy0wLjAzLDAuMDMtMC4wMywwLjAzLTAuMDMsMC4wM2MwLjA3LDAsMC4wNywwLDAuMDcsMGMwLDAuMDQsMCwwLjA4LDAuMDQsMC4wOCAgICAgYzAuMDMsMCwwLjAzLTAuMDQsMC4wMy0wLjA0YzAuODIsMC4xNSwwLjgyLDAuMTUsMC44MiwwLjE1QzEuNzksNDcuNjMsMS40NSw0Ny45MiwxLjA1LDQ3LjkyeiBNMS45Myw0Ny4wNWMwLDAuMDMsMCwwLjA3LDAsMC4xMSAgICAgYy0wLjc4LTAuMTUtMC43OC0wLjE1LTAuNzgtMC4xNWMwLjQ5LTAuNjIsMC40OS0wLjYyLDAuNDktMC42MkMxLjgyLDQ2LjU3LDEuOTMsNDYuNzksMS45Myw0Ny4wNXogTTEuNzUsNDYuMjggICAgIGMwLjI5LTAuNCwwLjI5LTAuNCwwLjI5LTAuNGMwLjM4LDEuMjQsMC4zOCwxLjI0LDAuMzgsMS4yNGMtMC4wOSwwLjA0LTAuMDksMC4wNC0wLjEyLDAuMTFjLTAuMjItMC4wNy0wLjIyLTAuMDctMC4yMi0wLjA3ICAgICBjMC0wLjA0LDAtMC4wOCwwLTAuMTFDMi4wOCw0Ni43MiwxLjk3LDQ2LjQ2LDEuNzUsNDYuMjh6IE0yLjY3LDQ3LjA1YzAuMDgtMC4yMiwwLjA4LTAuMjIsMC4wOC0wLjIyYzAuMDcsMCwwLjA3LDAsMC4wNywwICAgICBjMC4wNCwwLDAuMDctMC4wNCwwLjA3LTAuMDRjMC0wLjA0LTAuMDMtMC4wNy0wLjA3LTAuMDdjLTAuMjYsMC0wLjI2LDAtMC4yNiwwYy0wLjAzLDAtMC4wNywwLjAzLTAuMDcsMC4wNyAgICAgYzAsMCwwLjA0LDAuMDQsMC4wNywwLjA0YzAuMDQsMCwwLjA0LDAsMC4wNCwwYy0wLjA0LDAuMjUtMC4wNCwwLjI1LTAuMDQsMC4yNWMtMC4wMywwLTAuMDMsMC0wLjAzLDBsMCwwICAgICBjLTAuMzgtMS4yNy0wLjM4LTEuMjctMC4zOC0xLjI3YzEuNTIsMCwxLjUyLDAsMS41MiwwYzAsMC4wMywwLDAuMDcsMC4wNCwwLjFMMi42Nyw0Ny4wNXogTTQuNDEsNDcuOTIgICAgIGMtMC40NywwLTAuODktMC40LTAuODktMC44N2MwLTAuMywwLjE1LTAuNTEsMC4zMy0wLjY2YzAuMDQsMC4wNywwLjA5LDAuMTUsMC4wOSwwLjIyYzAuMTEsMC4xOCwwLjI5LDAuMzMsMC4zNiwwLjQ0bDAsMCAgICAgYzAsMC4wMywwLjA0LDAuMTEsMC4xMSwwLjExczAuMTEtMC4wOCwwLjExLTAuMTFjMC0wLjA4LTAuMDQtMC4xMS0wLjExLTAuMTFsMCwwYy0wLjExLTAuMDgtMC4yOS0wLjIyLTAuMzYtMC40ICAgICBjMC0wLjA0LTAuMDQtMC4xMS0wLjA4LTAuMjJjMC4xMS0wLjA4LDAuMjYtMC4xNSwwLjQ0LTAuMTVjMC40OSwwLDAuODksMC40LDAuODksMC44OEM1LjMsNDcuNTIsNC45LDQ3LjkyLDQuNDEsNDcuOTJ6Ii8+JiN4YTsJCTwvZz4mI3hhOwkJPGcgaWQ9InNoYXBlNzA3Ni0yMiIgdHJhbnNmb3JtPSJ0cmFuc2xhdGUoOS45MTgxOCwtMzguMzM3NCkiPiYjeGE7CQkJPHRpdGxlIGlkPSJ0aXRsZTMxMTY4MyI+U2hlZXQuNzA3NjwvdGl0bGU+JiN4YTsJCQk8cGF0aCBpZD0icGF0aDMxMTY4NSIgaW5rc2NhcGU6Y29ubmVjdG9yLWN1cnZhdHVyZT0iMCIgc3R5bGU9ImZpbGw6I0YyN0FCNDsiIGQ9Ik0wLjE5LDQ3Ljg3YzAsMC4xNC0wLjA5LDAuMi0wLjE0LDAuMiAgICAgYzAsMCwwLDAtMC4wNS0wLjA2QzAuMTksNDcuODcsMC4xOSw0Ny44NywwLjE5LDQ3Ljg3TDAuMTksNDcuODd6Ii8+JiN4YTsJCTwvZz4mI3hhOwkJPGcgaWQ9InNoYXBlNzA3Ny0yNCIgdHJhbnNmb3JtPSJ0cmFuc2xhdGUoOC4xNjgyNCwtMzcuNzUzNikiPiYjeGE7CQkJPHRpdGxlIGlkPSJ0aXRsZTMxMTY4OCI+U2hlZXQuNzA3NzwvdGl0bGU+JiN4YTsJCQk8cGF0aCBpZD0icGF0aDMxMTY5MCIgaW5rc2NhcGU6Y29ubmVjdG9yLWN1cnZhdHVyZT0iMCIgc3R5bGU9ImZpbGw6I0NFOUM1RTsiIGQ9Ik0xLjg1LDQ4LjA3QzAuODQsNDguMDcsMCw0Ny4zOSwwLDQ2LjMzICAgICBjMC0xLjM4LDAtMS4zOCwwLTEuMzhjMy42OSwwLDMuNjksMCwzLjY5LDBjMCwxLjM4LDAsMS4zOCwwLDEuMzhDMy42OSw0Ny4zOSwyLjg3LDQ4LjA3LDEuODUsNDguMDd6Ii8+JiN4YTsJCTwvZz4mI3hhOwkJPGcgaWQ9InNoYXBlNzA3OC0yNiIgdHJhbnNmb3JtPSJ0cmFuc2xhdGUoNy4wMDE2MSwtMzkuNjk5NykiPiYjeGE7CQkJPHRpdGxlIGlkPSJ0aXRsZTMxMTY5MyI+U2hlZXQuNzA3ODwvdGl0bGU+JiN4YTsJCQk8cGF0aCBpZD0icGF0aDMxMTY5NSIgaW5rc2NhcGU6Y29ubmVjdG9yLWN1cnZhdHVyZT0iMCIgc3R5bGU9ImZpbGw6I0NFOUM1RTsiIGQ9Ik01LjgzLDQ0LjE0YzAsMi4zMy0xLjI2LDMuOTMtMi45MywzLjkzICAgICBjLTEuNjYsMC0yLjktMS42LTIuOS0zLjkzYzAtMi4zNSwxLjI0LTQuMjUsMi45LTQuMjVDNS4wMSwzOS44OSw1LjgzLDQxLjc5LDUuODMsNDQuMTR6Ii8+JiN4YTsJCTwvZz4mI3hhOwkJPGcgaWQ9InNoYXBlNzA3OS0yOCIgdHJhbnNmb3JtPSJ0cmFuc2xhdGUoNi42MTI3MywtNDIuNDI0MikiPiYjeGE7CQkJPHRpdGxlIGlkPSJ0aXRsZTMxMTY5OCI+U2hlZXQuNzA3OTwvdGl0bGU+JiN4YTsJCQk8cGF0aCBpZD0icGF0aDMxMTcwMCIgaW5rc2NhcGU6Y29ubmVjdG9yLWN1cnZhdHVyZT0iMCIgc3R5bGU9ImZpbGw6I0NFOUM1RTsiIGQ9Ik0wLjU4LDQ2LjMyYy0wLjMyLDAtMC4zMiwwLTAuMzIsMCAgICAgQzAuMSw0Ni4zMiwwLDQ2LjQ2LDAsNDYuNjNjMCwxLjEzLDAsMS4xMywwLDEuMTNjMCwwLjE3LDAuMSwwLjMxLDAuMjYsMC4zMWMwLjIsMCwwLjIsMCwwLjIsMEwwLjU4LDQ2LjMyeiIvPiYjeGE7CQk8L2c+JiN4YTsJCTxnIGlkPSJzaGFwZTcwODAtMzAiIHRyYW5zZm9ybT0idHJhbnNsYXRlKDEyLjY0MDMsLTQyLjQyNDIpIj4mI3hhOwkJCTx0aXRsZSBpZD0idGl0bGUzMTE3MDMiPlNoZWV0LjcwODA8L3RpdGxlPiYjeGE7CQkJPHBhdGggaWQ9InBhdGgzMTE3MDUiIGlua3NjYXBlOmNvbm5lY3Rvci1jdXJ2YXR1cmU9IjAiIHN0eWxlPSJmaWxsOiNDRTlDNUU7IiBkPSJNMCw0Ni4zMmMwLjQ2LDAsMC40NiwwLDAuNDYsMCAgICAgYzAuMiwwLDAuMzIsMC4xNCwwLjMyLDAuMzFjMCwxLjEzLDAsMS4xMywwLDEuMTNjMCwwLjE3LTAuMTIsMC4zMS0wLjMyLDAuMzFjLTAuMjksMC0wLjI5LDAtMC4yOSwwTDAsNDYuMzJ6Ii8+JiN4YTsJCTwvZz4mI3hhOwkJPGcgaWQ9InNoYXBlNzA4MS0zMiIgdHJhbnNmb3JtPSJ0cmFuc2xhdGUoOC41NTcxMSwtNDMuNTkxOCkiPiYjeGE7CQkJPHRpdGxlIGlkPSJ0aXRsZTMxMTcwOCI+U2hlZXQuNzA4MTwvdGl0bGU+JiN4YTsJCQk8cGF0aCBpZD0icGF0aDMxMTcxMCIgaW5rc2NhcGU6Y29ubmVjdG9yLWN1cnZhdHVyZT0iMCIgc3R5bGU9ImZpbGw6IzIzMUYyMDsiIGQ9Ik0wLjE5LDQ4LjA3YzAuMSwwLDAuMi0wLjA5LDAuMi0wLjIxICAgICBjMC0wLjA4LTAuMS0wLjE4LTAuMi0wLjE4QzAuMDcsNDcuNjgsMCw0Ny43OCwwLDQ3LjlDMCw0Ny45OCwwLjEsNDguMDcsMC4xOSw0OC4wN3oiLz4mI3hhOwkJPC9nPiYjeGE7CQk8ZyBpZD0ic2hhcGU3MDgyLTM0IiB0cmFuc2Zvcm09InRyYW5zbGF0ZSgxMS4wODQ4LC00My4zOTcyKSI+JiN4YTsJCQk8dGl0bGUgaWQ9InRpdGxlMzExNzEzIj5TaGVldC43MDgyPC90aXRsZT4mI3hhOwkJCTxwYXRoIGlkPSJwYXRoMzExNzE1IiBpbmtzY2FwZTpjb25uZWN0b3ItY3VydmF0dXJlPSIwIiBzdHlsZT0iZmlsbDojMjMxRjIwOyIgZD0iTTAuMTksNDguMDdjMC4xLDAsMC4yLTAuMTQsMC4yLTAuMzEgICAgIGMwLTAuMTMtMC4xLTAuMjgtMC4yLTAuMjhDMC4xLDQ3LjQ4LDAsNDcuNjMsMCw0Ny44QzAsNDcuOTMsMC4xLDQ4LjA3LDAuMTksNDguMDd6Ii8+JiN4YTsJCTwvZz4mI3hhOwkJPGcgaWQ9InNoYXBlNzA4My0zNiIgdHJhbnNmb3JtPSJ0cmFuc2xhdGUoOC4xNjgyNCwtMzkuNTA1MSkiPiYjeGE7CQkJPHRpdGxlIGlkPSJ0aXRsZTMxMTcxOCI+U2hlZXQuNzA4MzwvdGl0bGU+JiN4YTsJCQk8cGF0aCBpZD0icGF0aDMxMTcyMCIgaW5rc2NhcGU6Y29ubmVjdG9yLWN1cnZhdHVyZT0iMCIgc3R5bGU9ImZpbGw6I0NFOUM1RTsiIGQ9Ik0wLDQ2LjcxYzMuNSwwLDMuNSwwLDMuNSwwICAgICBjLTAuNDQsMC44My0xLjAzLDEuMzYtMS43NSwxLjM2QzEuMDUsNDguMDcsMC40NSw0Ny41NCwwLDQ2LjcxeiIvPiYjeGE7CQk8L2c+JiN4YTsJCTxnIGlkPSJzaGFwZTcwODQtMzgiIHRyYW5zZm9ybT0idHJhbnNsYXRlKDguMTY4MjQsLTM5LjMxMDUpIj4mI3hhOwkJCTx0aXRsZSBpZD0idGl0bGUzMTE3MjMiPlNoZWV0LjcwODQ8L3RpdGxlPiYjeGE7CQkJPHBhdGggaWQ9InBhdGgzMTE3MjUiIGlua3NjYXBlOmNvbm5lY3Rvci1jdXJ2YXR1cmU9IjAiIHN0eWxlPSJmaWxsOiNCQThENTc7IiBkPSJNMy42OSw0Ni45YzAsMC4yOSwwLDAuMjksMCwwLjI5ICAgICBjMCwwLjI4LTEuMTksMC44OC0xLjg0LDAuODhDMS4yNCw0OC4wNywwLDQ3LjYyLDAsNDcuMTljMC0wLjI5LDAtMC4yOSwwLTAuMjljMC4yNiwwLjI2LDAuNTUsMC40NiwwLjg3LDAuNjEgICAgIGMwLjMsMC4yNCwwLjYyLDAuMzUsMC45OCwwLjM1czAuNjktMC4xMSwwLjk4LTAuMzVDMy4xNiw0Ny4zNiwzLjQ1LDQ3LjE2LDMuNjksNDYuOXoiLz4mI3hhOwkJPC9nPiYjeGE7CQk8ZyBpZD0ic2hhcGU3MDg1LTQwIiB0cmFuc2Zvcm09InRyYW5zbGF0ZSg4Ljc1MTU1LC00MS4wNjE5KSI+JiN4YTsJCQk8dGl0bGUgaWQ9InRpdGxlMzExNzI4Ij5TaGVldC43MDg1PC90aXRsZT4mI3hhOwkJCTxwYXRoIGlkPSJwYXRoMzExNzMwIiBpbmtzY2FwZTpjb25uZWN0b3ItY3VydmF0dXJlPSIwIiBzdHlsZT0iZmlsbDojRkZGRkZGOyIgZD0iTTEuMTcsNDguMDdjMC41NCwwLDAuOC0wLjEyLDEuMTYtMC4yICAgICBjLTAuMTgsMC4wNC0wLjYyLDAuMDgtMS4xNiwwLjA4Yy0wLjU5LDAtMC45OS0wLjA0LTEuMTctMC4wOEMwLjM2LDQ3Ljk1LDAuNjIsNDguMDcsMS4xNyw0OC4wN3oiLz4mI3hhOwkJPC9nPiYjeGE7CQk8ZyBpZD0ic2hhcGU3MDg2LTQyIiB0cmFuc2Zvcm09InRyYW5zbGF0ZSg4Ljc1MTU1LC00MC44NjczKSI+JiN4YTsJCQk8dGl0bGUgaWQ9InRpdGxlMzExNzMzIj5TaGVldC43MDg2PC90aXRsZT4mI3hhOwkJCTxwYXRoIGlkPSJwYXRoMzExNzM1IiBpbmtzY2FwZTpjb25uZWN0b3ItY3VydmF0dXJlPSIwIiBzdHlsZT0iZmlsbDojQkIxNDFBOyIgZD0iTTEuMjksNDguMDdjLTAuMzgsMC0wLjYxLTAuMS0wLjg2LTAuMTUgICAgIGMtMC4wOS0wLjA1LTAuMi0wLjEtMC4zMS0wLjE0Yy0wLjAzLDAtMC4wMywwLTAuMDcsMEwwLDQ3LjczYzAuMDUtMC4wNSwwLjA1LTAuMDUsMC4wOS0wLjA1YzAsMCwwLjAzLDAsMC4wNywwICAgICBjMC4xOCwwLjA1LDAuNjEsMC4xLDEuMTMsMC4xYzAuNDgsMCwwLjkxLTAuMDUsMS4xMy0wLjFjMC4wMywwLDAuMDMsMCwwLjA3LDBzMC4wNCwwLDAuMDQsMC4wNWMwLDAsMCwwLjA1LTAuMDQsMC4wNSAgICAgYzAsMC0wLjA0LDAtMC4wNywwYy0wLjA3LDAuMDQtMC4xOCwwLjA5LTAuMzEsMC4xNEMxLjksNDcuOTcsMS42Myw0OC4wNywxLjI5LDQ4LjA3eiBNMC42MSw0Ny44N2MwLjE5LDAuMDUsMC40MSwwLjEsMC42OCwwLjEgICAgIHMwLjQ4LTAuMDUsMC42OC0wLjFjLTAuMjMsMC0wLjQ1LDAtMC42OCwwQzEuMDIsNDcuODcsMC44LDQ3Ljg3LDAuNjEsNDcuODd6Ii8+JiN4YTsJCTwvZz4mI3hhOwkJPGcgaWQ9InNoYXBlNzA4Ny00NCIgdHJhbnNmb3JtPSJ0cmFuc2xhdGUoOS4zMzQ4NywtNDEuODQwNCkiPiYjeGE7CQkJPHRpdGxlIGlkPSJ0aXRsZTMxMTczOCI+U2hlZXQuNzA4NzwvdGl0bGU+JiN4YTsJCQk8cGF0aCBpZD0icGF0aDMxMTc0MCIgaW5rc2NhcGU6Y29ubmVjdG9yLWN1cnZhdHVyZT0iMCIgc3R5bGU9ImZpbGw6I0JBOEQ1NzsiIGQ9Ik0xLjE3LDQ3LjQ4YzAsMC4xNS0wLjEsMC4zLTAuMjEsMC4yNSAgICAgYy0wLjA0LDAtMC4wNywwLjA5LTAuMTUsMC4xNGMtMC4wNiwwLjEtMC4xMywwLjItMC4yNCwwLjJjLTAuMDcsMC0wLjE4LTAuMS0wLjI0LTAuMmMtMC4wNy0wLjA1LTAuMTEtMC4xNC0wLjExLTAuMTQgICAgIEMwLjA3LDQ3Ljc4LDAsNDcuNjMsMCw0Ny40OGwwLDBDMS4xNyw0Ny40OCwxLjE3LDQ3LjQ4LDEuMTcsNDcuNDhMMS4xNyw0Ny40OHoiLz4mI3hhOwkJPC9nPiYjeGE7CQk8ZyBpZD0ic2hhcGU3MDg4LTQ2IiB0cmFuc2Zvcm09InRyYW5zbGF0ZSg3LjAwMTYxLC00Mi44MTM0KSI+JiN4YTsJCQk8dGl0bGUgaWQ9InRpdGxlMzExNzQzIj5TaGVldC43MDg4PC90aXRsZT4mI3hhOwkJCTxwYXRoIGlkPSJwYXRoMzExNzQ1IiBpbmtzY2FwZTpjb25uZWN0b3ItY3VydmF0dXJlPSIwIiBzdHlsZT0iZmlsbDojRkZCOTAwOyIgZD0iTTYuMDMsNDUuNTRjMCwyLjUzLDAsMi41MywwLDIuNTMgICAgIGMtMC4yNiwwLTAuMjYsMC0wLjI2LDBjLTAuMTQtMy4wNC0wLjE0LTMuMDQtMC4xNC0zLjA0QzQuOCw0NS4xNyw0LjgsNDUuMTcsNC44LDQ1LjE3Yy0xLjE5LDAuMTUtMi4zOCwwLjE1LTMuNTYsMCAgICAgYy0wLjgzLTAuMTQtMC44My0wLjE0LTAuODMtMC4xNGMtMC4xOCwzLTAuMTgsMy0wLjE4LDNjLTAuMjMsMC0wLjIzLDAtMC4yMywwYzAtMi40OSwwLTIuNDksMC0yLjQ5YzAtMS41MSwxLjA1LTIuNzMsMi4zMS0yLjczICAgICBjMS4zOCwwLDEuMzgsMCwxLjM4LDBDNC45OSw0Mi44MSw2LjAzLDQ0LjAzLDYuMDMsNDUuNTR6Ii8+JiN4YTsJCTwvZz4mI3hhOwkJPGcgaWQ9InNoYXBlNzA4OS00OCIgdHJhbnNmb3JtPSJ0cmFuc2xhdGUoMTAuODkwNCwtNDQuMTc1NikiPiYjeGE7CQkJPHRpdGxlIGlkPSJ0aXRsZTMxMTc0OCI+U2hlZXQuNzA4OTwvdGl0bGU+JiN4YTsJCQk8cGF0aCBpZD0icGF0aDMxMTc1MCIgaW5rc2NhcGU6Y29ubmVjdG9yLWN1cnZhdHVyZT0iMCIgc3R5bGU9ImZpbGw6I0ZGQjkwMDsiIGQ9Ik0wLjk3LDQ4LjA3YzAsMC0wLjA2LTAuMDMtMC4xNi0wLjEgICAgIGMtMC4wMywwLTAuMDYtMC4wMi0wLjEzLTAuMDZjLTAuMDItMC4wNC0wLjA2LTAuMDQtMC4wNi0wLjA0cy0wLjA0LTAuMDItMC4wNi0wLjAyYzAsMCwwLDAtMC4wNCwwYy0wLjEzLTAuMDQtMC4yNSwwLTAuMzUsMCAgICAgYy0wLjA0LDAtMC4wNywwLTAuMSwwcy0wLjA3LDAtMC4wNywwbDAsMGMwLTAuMDQsMC0wLjA0LDAtMC4wNHMwLjA3LTAuMDMsMC4xNy0wLjA2YzAuMS0wLjAzLDAuMjItMC4wNywwLjM5LTAuMDMgICAgIGMwLDAsMC4wMiwwLDAuMDYsMGMwLDAsMCwwLDAuMDQsMC4wM2MwLjAyLDAsMC4wNiwwLjAzLDAuMDksMC4wM2MwLjA2LDAuMDcsMC4xLDAuMDksMC4xMiwwLjEzYzAuMDQsMC4wNCwwLjA4LDAuMSwwLjEsMC4xICAgICBDMC45Nyw0OC4wNCwwLjk3LDQ4LjA3LDAuOTcsNDguMDdMMC45Nyw0OC4wN0MwLjk3LDQ4LjA3LDAuOTcsNDguMDcsMC45Nyw0OC4wN3oiLz4mI3hhOwkJPC9nPiYjeGE7CQk8ZyBpZD0ic2hhcGU3MDkwLTUwIiB0cmFuc2Zvcm09InRyYW5zbGF0ZSg4LjE2ODI0LC00NC4xODE3KSI+JiN4YTsJCQk8dGl0bGUgaWQ9InRpdGxlMzExNzUzIj5TaGVldC43MDkwPC90aXRsZT4mI3hhOwkJCTxwYXRoIGlkPSJwYXRoMzExNzU1IiBpbmtzY2FwZTpjb25uZWN0b3ItY3VydmF0dXJlPSIwIiBzdHlsZT0iZmlsbDojRkZCOTAwOyIgZD0iTTAuOTUsNDcuODVjMCwwLTAuMDYsMC0wLjE2LTAuMDMgICAgIGMtMC4wNCwwLTAuMSwwLTAuMTYsMGMtMC4wMiwwLTAuMDYsMC0wLjEsMEgwLjUxSDAuNDdjLTAuMTIsMC4wMy0wLjIxLDAuMS0wLjMxLDAuMTZjLTAuMDMsMC4wMy0wLjA2LDAuMDMtMC4wOSwwLjA3ICAgICBjLTAuMDMsMC0wLjAzLDAtMC4wMywwYzAsMC4wMi0wLjA0LDAuMDItMC4wNCwwbDAsMGMwLDAsMC4wNC0wLjA3LDAuMS0wLjEzYzAuMDktMC4xLDAuMTktMC4xNiwwLjM1LTAuMjRoMC4wMiAgICAgYzAuMDQsMCwwLjA0LDAsMC4wNiwwYzAuMDQsMCwwLjEsMCwwLjE0LDBjMC4wNiwwLDAuMDgsMC4wNCwwLjE2LDAuMDRjMC4wMiwwLjA0LDAuMDgsMC4wNiwwLjA4LDAuMDYgICAgIGMwLjA0LDAuMDQsMC4wNiwwLjA0LDAuMDYsMC4wNHMwLDAsMCwwLjAzQzAuOTcsNDcuODUsMC45NSw0Ny44NSwwLjk1LDQ3Ljg1eiIvPiYjeGE7CQk8L2c+JiN4YTsJCTxnIGlkPSJzaGFwZTcwOTEtNTIiIHRyYW5zZm9ybT0idHJhbnNsYXRlKDkuMzM0ODcsLTQyLjQyNDIpIj4mI3hhOwkJCTx0aXRsZSBpZD0idGl0bGUzMTE3NTgiPlNoZWV0LjcwOTE8L3RpdGxlPiYjeGE7CQkJPHBhdGggaWQ9InBhdGgzMTE3NjAiIGlua3NjYXBlOmNvbm5lY3Rvci1jdXJ2YXR1cmU9IjAiIHN0eWxlPSJmaWxsOiNEOUIwN0Y7IiBkPSJNMC43OCw0Ni4zMmMwLDEuNzUsMCwxLjc1LDAsMS43NSAgICAgYy0wLjc4LDAtMC43OCwwLTAuNzgsMGMwLTAuMDQsMC4wNS0wLjExLDAuMS0wLjE1YzAuMTMtMC4xMSwwLjIzLTAuMywwLjI4LTAuNTNjMC4wMy0wLjc2LDAuMDMtMC43NiwwLjAzLTAuNzYgICAgIEMwLjQxLDQ2LjQsMC42OSw0Ni4zMiwwLjc4LDQ2LjMyeiIvPiYjeGE7CQk8L2c+JiN4YTsJCTxnIGlkPSJzaGFwZTcwOTItNTQiIHRyYW5zZm9ybT0idHJhbnNsYXRlKDIuMzM1MSwtMjQuNTIwNCkiPiYjeGE7CQkJPHRpdGxlIGlkPSJ0aXRsZTMxMTc2MyI+U2hlZXQuNzA5MjwvdGl0bGU+JiN4YTsJCQk8cGF0aCBpZD0icGF0aDMxMTc2NSIgaW5rc2NhcGU6Y29ubmVjdG9yLWN1cnZhdHVyZT0iMCIgc3R5bGU9ImZpbGw6I0U2MUUyNzsiIGQ9Ik00LjA2LDQ4LjA3bDYuMDUtNS45bC00LjEyLTQuMjJMMCw0My44OCAgICAgTDQuMDYsNDguMDd6Ii8+JiN4YTsJCTwvZz4mI3hhOwkJPGcgaWQ9InNoYXBlNzA5My01NiIgdHJhbnNmb3JtPSJ0cmFuc2xhdGUoMi4zMzUxLC0yNC41MjA0KSI+JiN4YTsJCQk8dGl0bGUgaWQ9InRpdGxlMzExNzY4Ij5TaGVldC43MDkzPC90aXRsZT4mI3hhOwkJCTxwYXRoIGlkPSJwYXRoMzExNzcwIiBpbmtzY2FwZTpjb25uZWN0b3ItY3VydmF0dXJlPSIwIiBzdHlsZT0iZmlsbDojRUQ0RTVBOyIgZD0iTTQuMDYsNDguMDdsNi4wNS01Ljg0TDAsNDMuOTNMNC4wNiw0OC4wN3oiLz4mI3hhOwkJPC9nPiYjeGE7CQk8ZyBpZD0ic2hhcGU3MDk0LTU4IiB0cmFuc2Zvcm09InRyYW5zbGF0ZSgwLjM5MDcxNSwtMzAuOTQyNCkiPiYjeGE7CQkJPHRpdGxlIGlkPSJ0aXRsZTMxMTc3MyI+U2hlZXQuNzA5NDwvdGl0bGU+JiN4YTsJCQk8cGF0aCBpZD0icGF0aDMxMTc3NSIgaW5rc2NhcGU6Y29ubmVjdG9yLWN1cnZhdHVyZT0iMCIgc3R5bGU9ImZpbGw6I0NFOUM1RTsiIGQ9Ik0wLDQ2LjRsMi4zNiwxLjY3bDQuMDYtNC42NGwtMy4yNC0yLjM3TDAsNDYuNCAgICAgeiIvPiYjeGE7CQk8L2c+JiN4YTsJCTxnIGlkPSJzaGFwZTcwOTUtNjAiIHRyYW5zZm9ybT0idHJhbnNsYXRlKDMuMTgyNzQsLTM0LjcxNzQpIj4mI3hhOwkJCTx0aXRsZSBpZD0idGl0bGUzMTE3NzgiPlNoZWV0LjcwOTU8L3RpdGxlPiYjeGE7CQkJPHBhdGggaWQ9InBhdGgzMTE3ODAiIGlua3NjYXBlOmNvbm5lY3Rvci1jdXJ2YXR1cmU9IjAiIHN0eWxlPSJmaWxsOiNFNkU3RTg7IiBkPSJNMC4zOCw0NC45NWMwLjYzLTAuODYsMS44Ni0xLjA5LDIuNzYtMC40MiAgICAgYzAuODksMC42NCwxLjA3LDEuODUsMC40NCwyLjc0Yy0wLjY3LDAuODUtMS44NiwxLjA3LTIuNzYsMC40NUMtMC4wNyw0Ny4wOS0wLjI2LDQ1Ljg3LDAuMzgsNDQuOTV6Ii8+JiN4YTsJCTwvZz4mI3hhOwkJPGcgaWQ9InNoYXBlNzA5Ni02MiIgdHJhbnNmb3JtPSJ0cmFuc2xhdGUoNS40NDYxMSwtMjYuNTQzMikiPiYjeGE7CQkJPHRpdGxlIGlkPSJ0aXRsZTMxMTc4MyI+U2hlZXQuNzA5NjwvdGl0bGU+JiN4YTsJCQk8cGF0aCBpZD0icGF0aDMxMTc4NSIgaW5rc2NhcGU6Y29ubmVjdG9yLWN1cnZhdHVyZT0iMCIgc3R5bGU9ImZpbGw6I0NEOUI1RTsiIGQ9Ik0xLjUzLDQ2Ljk1YzAuOTIsMC44NywxLjM3LDAuOTQsMi40MiwxLjA5ICAgICBjMC42MywwLjEsMC44NS0wLjA4LDAuNjMtMC4zYzAuNTUsMC4yNiwxLjExLTAuMTIsMC43MS0wLjNjMC4xNCwwLDAuNTEtMC4xMSwwLjUxLTAuMzRjMC4wMy0wLjE4LTAuMzctMC4yMi0wLjUxLTAuMjIgICAgIGMwLjE0LTAuMiwwLjExLTAuNDUtMC4zOC0wLjQ5Yy0wLjM4LTAuMDMtMC42LTAuMjMtMC42LTAuMjNjMC40NS0wLjExLDAuNi0wLjQxLDAuNDktMC41OWMtMC40OSwwLjAzLTEuMjMtMC4xNi0xLjgyLTAuMTEgICAgIGMtMC4xMSwwLTAuMjIsMC4wMy0wLjMzLDAuMDdjLTIuMzgtMS40Ny0yLjM4LTEuNDctMi4zOC0xLjQ3QzAsNDYuMTMsMCw0Ni4xMywwLDQ2LjEzTDEuNTMsNDYuOTV6Ii8+JiN4YTsJCTwvZz4mI3hhOwkJPGcgaWQ9InNoYXBlNzA5Ny02NCIgdHJhbnNmb3JtPSJ0cmFuc2xhdGUoMCwtMzAuMzY3MSkiPiYjeGE7CQkJPHRpdGxlIGlkPSJ0aXRsZTMxMTc4OCI+U2hlZXQuNzA5NzwvdGl0bGU+JiN4YTsJCQk8cGF0aCBpZD0icGF0aDMxMTc5MCIgaW5rc2NhcGU6Y29ubmVjdG9yLWN1cnZhdHVyZT0iMCIgc3R5bGU9ImZpbGw6I0NFOUM1RTsiIGQ9Ik0yLjI1LDQ1LjQyYzAuNjgsMC40MiwwLjg2LDEuMjgsMC40OSwxLjk5ICAgICBjLTAuNDIsMC42NC0xLjMzLDAuODYtMi4wMSwwLjQ1QzAsNDcuNDktMC4xOSw0Ni41OCwwLjIsNDUuOTFDMC42NSw0NS4xOSwxLjUyLDQ0Ljk2LDIuMjUsNDUuNDJ6Ii8+JiN4YTsJCTwvZz4mI3hhOwkJPGcgaWQ9InNoYXBlNzA5OC02NiIgdHJhbnNmb3JtPSJ0cmFuc2xhdGUoMC43Nzk1OTEsLTI3LjYzNDEpIj4mI3hhOwkJCTx0aXRsZSBpZD0idGl0bGUzMTE3OTMiPlNoZWV0LjcwOTg8L3RpdGxlPiYjeGE7CQkJPHBhdGggaWQ9InBhdGgzMTE3OTUiIGlua3NjYXBlOmNvbm5lY3Rvci1jdXJ2YXR1cmU9IjAiIHN0eWxlPSJmaWxsOiNDRTlDNUU7IiBkPSJNNi4yMiw0OC4wN2wwLjM5LTEuODNsLTUuMTMtMy40M0wwLDQ1LjE2ICAgICBMNi4yMiw0OC4wN3oiLz4mI3hhOwkJPC9nPiYjeGE7CQk8ZyBpZD0ic2hhcGU3MDk5LTY4IiB0cmFuc2Zvcm09InRyYW5zbGF0ZSgxLjE2ODQ3LC0zMi4zMDQ2KSI+JiN4YTsJCQk8dGl0bGUgaWQ9InRpdGxlMzExNzk4Ij5TaGVldC43MDk5PC90aXRsZT4mI3hhOwkJCTxwYXRoIGlkPSJwYXRoMzExODAwIiBpbmtzY2FwZTpjb25uZWN0b3ItY3VydmF0dXJlPSIwIiBzdHlsZT0iZmlsbDojRTZFN0U4OyIgZD0iTTAsNDUuOTVsMy4yMSwyLjEybDMuNC0zLjk4bC0yLjczLTEuNjdIMi40MiAgICAgTDAsNDUuOTV6Ii8+JiN4YTsJCTwvZz4mI3hhOwkJPGcgaWQ9InNoYXBlNzEwMC03MCIgdHJhbnNmb3JtPSJ0cmFuc2xhdGUoMTIuODM0OCwtMzEuMTM3KSI+JiN4YTsJCQk8dGl0bGUgaWQ9InRpdGxlMzExODAzIj5TaGVldC43MTAwPC90aXRsZT4mI3hhOwkJCTxwYXRoIGlkPSJwYXRoMzExODA1IiBpbmtzY2FwZTpjb25uZWN0b3ItY3VydmF0dXJlPSIwIiBzdHlsZT0iZmlsbDojQ0U5QzVFOyIgZD0iTTYuMjIsNDYuNzVsLTIuMzQsMS4zMkwwLDQzLjU0bDMuMTEtMi4yOCAgICAgTDYuMjIsNDYuNzV6Ii8+JiN4YTsJCTwvZz4mI3hhOwkJPGcgaWQ9InNoYXBlNzEwMS03MiIgdHJhbnNmb3JtPSJ0cmFuc2xhdGUoMTIuMzI5MSwtMzQuOTA3NSkiPiYjeGE7CQkJPHRpdGxlIGlkPSJ0aXRsZTMxMTgwOCI+U2hlZXQuNzEwMTwvdGl0bGU+JiN4YTsJCQk8cGF0aCBpZD0icGF0aDMxMTgxMCIgaW5rc2NhcGU6Y29ubmVjdG9yLWN1cnZhdHVyZT0iMCIgc3R5bGU9ImZpbGw6I0U2RTdFODsiIGQ9Ik0zLjYsNDQuOTFjLTAuNjYtMC44Ni0xLjg1LTEuMDUtMi43OS0wLjQxICAgICBjLTAuODksMC42Ny0xLjA4LDEuODYtMC40LDIuNzdjMC42MywwLjg4LDEuODYsMS4wNywyLjc2LDAuNDNDNC4wMiw0Ny4wNyw0LjIsNDUuODQsMy42LDQ0LjkxeiIvPiYjeGE7CQk8L2c+JiN4YTsJCTxnIGlkPSJzaGFwZTcxMDItNzQiIHRyYW5zZm9ybT0idHJhbnNsYXRlKDEzLjIyMzYsLTIyLjcwMSkiPiYjeGE7CQkJPHRpdGxlIGlkPSJ0aXRsZTMxMTgxMyI+U2hlZXQuNzEwMjwvdGl0bGU+JiN4YTsJCQk8cGF0aCBpZD0icGF0aDMxMTgxNSIgaW5rc2NhcGU6Y29ubmVjdG9yLWN1cnZhdHVyZT0iMCIgc3R5bGU9ImZpbGw6I0NEOUI1RTsiIGQ9Ik0zLjI5LDQ1LjEzYy0wLjE4LDEuMi0wLjQ3LDEuNTMtMS4xNCwyLjMgICAgIGMtMC40LDAuNDctMC42OCwwLjQ3LTAuNjQsMC4xOGMtMC4yNiwwLjU1LTAuOSwwLjU4LTAuNzIsMC4yMmMtMC4xMSwwLjA3LTAuNDMsMC4yNS0wLjU3LDAuMDdjLTAuMTUtMC4xMSwwLjExLTAuNCwwLjIyLTAuNDcgICAgIGMtMC4yMi0wLjA3LTAuMzctMC4yOSwwLTAuNjJjMC4yNC0wLjI2LDAuMzEtMC41NSwwLjMxLTAuNTVDMC4zMyw0Ni40NCwwLjA0LDQ2LjMzLDAsNDYuMTFjMC40LTAuMjUsMC44My0wLjg3LDEuMjktMS4yICAgICBjMC4xMS0wLjA3LDAuMjItMC4xNSwwLjMzLTAuMThjMC44NS0yLjU3LDAuODUtMi41NywwLjg1LTIuNTdjMS40MiwxLjM2LDEuNDIsMS4zNiwxLjQyLDEuMzZMMy4yOSw0NS4xM3oiLz4mI3hhOwkJPC9nPiYjeGE7CQk8ZyBpZD0ic2hhcGU3MTAzLTc2IiB0cmFuc2Zvcm09InRyYW5zbGF0ZSgxNy4wODA3LC0zMC43MjEyKSI+JiN4YTsJCQk8dGl0bGUgaWQ9InRpdGxlMzExODE4Ij5TaGVldC43MTAzPC90aXRsZT4mI3hhOwkJCTxwYXRoIGlkPSJwYXRoMzExODIwIiBpbmtzY2FwZTpjb25uZWN0b3ItY3VydmF0dXJlPSIwIiBzdHlsZT0iZmlsbDojQ0U5QzVFOyIgZD0iTTAuNTIsNDUuODZjLTAuNSwwLjM0LTAuNjgsMS4xMS0wLjM1LDEuNjYgICAgIGMwLjMxLDAuNTMsMC45OSwwLjcyLDEuNTMsMC4zOGMwLjUzLTAuMzEsMC42Ni0xLjA0LDAuMzUtMS42MUMxLjczLDQ1LjcxLDEuMDUsNDUuNTEsMC41Miw0NS44NnoiLz4mI3hhOwkJPC9nPiYjeGE7CQk8ZyBpZD0ic2hhcGU3MTA0LTc4IiB0cmFuc2Zvcm09InRyYW5zbGF0ZSgxNC45NzM2LC0yNS40OTM0KSI+JiN4YTsJCQk8dGl0bGUgaWQ9InRpdGxlMzExODIzIj5TaGVldC43MTA0PC90aXRsZT4mI3hhOwkJCTxwYXRoIGlkPSJwYXRoMzExODI1IiBpbmtzY2FwZTpjb25uZWN0b3ItY3VydmF0dXJlPSIwIiBzdHlsZT0iZmlsbDojQ0U5QzVFOyIgZD0iTTEuNTEsNDguMDdMMCw0Ni44OWwxLjctNi4wMmwyLjU4LDEuMDYgICAgIEwxLjUxLDQ4LjA3eiIvPiYjeGE7CQk8L2c+JiN4YTsJCTxnIGlkPSJzaGFwZTcxMDUtODAiIHRyYW5zZm9ybT0idHJhbnNsYXRlKDExLjg2MjYsLTMyLjQ5OTMpIj4mI3hhOwkJCTx0aXRsZSBpZD0idGl0bGUzMTE4MjgiPlNoZWV0LjcxMDU8L3RpdGxlPiYjeGE7CQkJPHBhdGggaWQ9InBhdGgzMTE4MzAiIGlua3NjYXBlOmNvbm5lY3Rvci1jdXJ2YXR1cmU9IjAiIHN0eWxlPSJmaWxsOiNFNkU3RTg7IiBkPSJNNi40Miw0NmwtMy4wOCwyLjA3TDAsNDQuMjZsMi42NC0xLjY0aDEuNDcgICAgIEw2LjQyLDQ2eiIvPiYjeGE7CQk8L2c+JiN4YTsJPC9nPiYjeGE7PC9nPiYjeGE7PC9zdmc+;" parent="1" vertex="1">
          <mxGeometry x="530.5" y="617.75" width="27" height="68" as="geometry" />
        </mxCell>
        <mxCell id="bxoRWXklIdyRBiyPACr1-6" value="" style="edgeStyle=elbowEdgeStyle;rounded=0;orthogonalLoop=1;jettySize=auto;elbow=vertical;html=1;strokeColor=#808080;endArrow=none;startArrow=none;" edge="1" parent="1" source="AcxdMaKK0mU5kZiv2lnr-37" target="bxoRWXklIdyRBiyPACr1-1">
          <mxGeometry relative="1" as="geometry">
            <mxPoint x="174.5" y="422" as="sourcePoint" />
            <mxPoint x="845" y="422" as="targetPoint" />
          </mxGeometry>
        </mxCell>
        <mxCell id="bxoRWXklIdyRBiyPACr1-1" value="" style="shape=image;html=1;verticalAlign=top;verticalLabelPosition=bottom;labelBackgroundColor=#ffffff;imageAspect=0;aspect=fixed;image=https://cdn4.iconfinder.com/data/icons/socialcones/508/Gitlab-128.png" vertex="1" parent="1">
          <mxGeometry x="510" y="225.5" width="68" height="68" as="geometry" />
        </mxCell>
        <mxCell id="AcxdMaKK0mU5kZiv2lnr-37" value="Visual Studio&#xa;Code" style="shape=image;verticalLabelPosition=bottom;labelBackgroundColor=none;verticalAlign=top;aspect=fixed;imageAspect=0;image=data:image/svg+xml,PHN2ZyB4bWxuczpkYz0iaHR0cDovL3B1cmwub3JnL2RjL2VsZW1lbnRzLzEuMS8iIHhtbG5zOmNjPSJodHRwOi8vY3JlYXRpdmVjb21tb25zLm9yZy9ucyMiIHhtbG5zOnJkZj0iaHR0cDovL3d3dy53My5vcmcvMTk5OS8wMi8yMi1yZGYtc3ludGF4LW5zIyIgeG1sbnM6c3ZnPSJodHRwOi8vd3d3LnczLm9yZy8yMDAwL3N2ZyIgeG1sbnM9Imh0dHA6Ly93d3cudzMub3JnLzIwMDAvc3ZnIiB4bWxuczp4bGluaz0iaHR0cDovL3d3dy53My5vcmcvMTk5OS94bGluayIgeG1sbnM6c29kaXBvZGk9Imh0dHA6Ly9zb2RpcG9kaS5zb3VyY2Vmb3JnZS5uZXQvRFREL3NvZGlwb2RpLTAuZHRkIiB4bWxuczppbmtzY2FwZT0iaHR0cDovL3d3dy5pbmtzY2FwZS5vcmcvbmFtZXNwYWNlcy9pbmtzY2FwZSIgdmVyc2lvbj0iMS4xIiBpZD0iTGF5ZXJfMSIgeD0iMHB4IiB5PSIwcHgiIHZpZXdCb3g9IjAgMCA1MC44NDk5OTggNTEuMDkiIHhtbDpzcGFjZT0icHJlc2VydmUiIHNvZGlwb2RpOmRvY25hbWU9InZpc3VhbF9zdHVkaW9fY29kZS5zdmciIHdpZHRoPSI1MC44NDk5OTgiIGhlaWdodD0iNTEuMDkiIGlua3NjYXBlOnZlcnNpb249IjAuOTIuMyAoMjQwNTU0NiwgMjAxOC0wMy0xMSkiPjxtZXRhZGF0YSBpZD0ibWV0YWRhdGE0MzE4OSI+PHJkZjpSREY+PGNjOldvcmsgcmRmOmFib3V0PSIiPjxkYzpmb3JtYXQ+aW1hZ2Uvc3ZnK3htbDwvZGM6Zm9ybWF0PjxkYzp0eXBlIHJkZjpyZXNvdXJjZT0iaHR0cDovL3B1cmwub3JnL2RjL2RjbWl0eXBlL1N0aWxsSW1hZ2UiLz48ZGM6dGl0bGUvPjwvY2M6V29yaz48L3JkZjpSREY+PC9tZXRhZGF0YT48ZGVmcyBpZD0iZGVmczQzMTg3Ii8+PHNvZGlwb2RpOm5hbWVkdmlldyBwYWdlY29sb3I9IiNmZmZmZmYiIGJvcmRlcmNvbG9yPSIjNjY2NjY2IiBib3JkZXJvcGFjaXR5PSIxIiBvYmplY3R0b2xlcmFuY2U9IjEwIiBncmlkdG9sZXJhbmNlPSIxMCIgZ3VpZGV0b2xlcmFuY2U9IjEwIiBpbmtzY2FwZTpwYWdlb3BhY2l0eT0iMCIgaW5rc2NhcGU6cGFnZXNoYWRvdz0iMiIgaW5rc2NhcGU6d2luZG93LXdpZHRoPSIxOTIwIiBpbmtzY2FwZTp3aW5kb3ctaGVpZ2h0PSIxMDE3IiBpZD0ibmFtZWR2aWV3NDMxODUiIHNob3dncmlkPSJmYWxzZSIgZml0LW1hcmdpbi10b3A9IjAiIGZpdC1tYXJnaW4tbGVmdD0iMCIgZml0LW1hcmdpbi1yaWdodD0iMCIgZml0LW1hcmdpbi1ib3R0b209IjAiIGlua3NjYXBlOnpvb209IjEuMDMwMzAzIiBpbmtzY2FwZTpjeD0iLTYuNTU1IiBpbmtzY2FwZTpjeT0iLTI5Ni4wNyIgaW5rc2NhcGU6d2luZG93LXg9Ii04IiBpbmtzY2FwZTp3aW5kb3cteT0iLTgiIGlua3NjYXBlOndpbmRvdy1tYXhpbWl6ZWQ9IjEiIGlua3NjYXBlOmN1cnJlbnQtbGF5ZXI9IkxheWVyXzEiLz4mI3hhOyYjeGE7PGcgaWQ9Imc0MzE4MiIgdHJhbnNmb3JtPSJ0cmFuc2xhdGUoLTMwMy45MywtNzMuNTkpIj4mI3hhOwk8ZGVmcyBpZD0iZGVmczQzMTY3Ij4mI3hhOwkJPHJlY3QgaWQ9IlNWR0lEXzNfIiB4PSIzMDMuOTI5OTkiIHk9IjczLjU4OTk5NiIgd2lkdGg9IjUxLjI1IiBoZWlnaHQ9IjUxLjI1Ii8+JiN4YTsJPC9kZWZzPiYjeGE7CTxjbGlwUGF0aCBpZD0iU1ZHSURfNF8iPiYjeGE7CQk8dXNlIHhsaW5rOmhyZWY9IiNTVkdJRF8zXyIgc3R5bGU9Im92ZXJmbG93OnZpc2libGUiIGlkPSJ1c2U0MzE2OSIgeD0iMCIgeT0iMCIgd2lkdGg9IjEwMCUiIGhlaWdodD0iMTAwJSIvPiYjeGE7CTwvY2xpcFBhdGg+JiN4YTsJPGcgY2xpcC1wYXRoPSJ1cmwoI1NWR0lEXzRfKSIgaWQ9Imc0MzE4MCI+JiN4YTsJCTxkZWZzIGlkPSJkZWZzNDMxNzMiPiYjeGE7CQkJPHJlY3QgaWQ9IlNWR0lEXzVfIiB4PSIzMDMuOTI5OTkiIHk9IjczLjU4OTk5NiIgd2lkdGg9IjUxLjI1IiBoZWlnaHQ9IjUxLjI1Ii8+JiN4YTsJCTwvZGVmcz4mI3hhOwkJPGNsaXBQYXRoIGlkPSJTVkdJRF82XyI+JiN4YTsJCQk8dXNlIHhsaW5rOmhyZWY9IiNTVkdJRF81XyIgc3R5bGU9Im92ZXJmbG93OnZpc2libGUiIGlkPSJ1c2U0MzE3NSIgeD0iMCIgeT0iMCIgd2lkdGg9IjEwMCUiIGhlaWdodD0iMTAwJSIvPiYjeGE7CQk8L2NsaXBQYXRoPiYjeGE7CQk8cGF0aCBzdHlsZT0iZmlsbDojMDE3OWNiIiBkPSJtIDMwOS44NywxMDUuMDIgNi4yMywtNS42NiAtNi4yMywtNi4yMyBWIDEwNSBaIG0gMzEuNTEsMy4zIFYgODkuOTUgbCAtMTEuODksOS4xOSAxMS44Nyw5LjE3IGggMC4wMiB6IG0gLTE5LjM1LC0zLjQ0IC0xMi42LDkuNzggLTUuNSwtMi43IFYgODYuMzUgbCA1LjQ4LC0yLjc2IDEyLjUyLDkuODQgMTkuODIsLTE5Ljg0IDEzLjAzLDUuMjMgdiA0MC41OSBsIC0xMi45OCw1LjI3IHoiIGNsaXAtcGF0aD0idXJsKCNTVkdJRF82XykiIGlkPSJwYXRoNDMxNzgiIGlua3NjYXBlOmNvbm5lY3Rvci1jdXJ2YXR1cmU9IjAiLz4mI3hhOwk8L2c+JiN4YTs8L2c+JiN4YTs8L3N2Zz4=;" parent="1" vertex="1">
          <mxGeometry x="518.5" y="442" width="51" height="51" as="geometry" />
        </mxCell>
        <mxCell id="bxoRWXklIdyRBiyPACr1-8" value="" style="whiteSpace=wrap;html=1;aspect=fixed;" vertex="1" parent="1">
          <mxGeometry x="1010" y="545.75" width="140" height="140" as="geometry" />
        </mxCell>
        <mxCell id="bxoRWXklIdyRBiyPACr1-13" value="" style="aspect=fixed;html=1;points=[];align=center;image;fontSize=12;image=img/lib/azure2/other/Grafana.svg;" vertex="1" parent="1">
          <mxGeometry x="1320" y="830" width="68" height="52.800000000000004" as="geometry" />
        </mxCell>
        <mxCell id="bxoRWXklIdyRBiyPACr1-14" style="edgeStyle=elbowEdgeStyle;rounded=0;orthogonalLoop=1;jettySize=auto;elbow=vertical;html=1;strokeColor=#808080;" edge="1" parent="1">
          <mxGeometry relative="1" as="geometry">
            <mxPoint x="945" y="273.1" as="sourcePoint" />
            <mxPoint x="1144" y="273.1" as="targetPoint" />
            <Array as="points">
              <mxPoint x="1134" y="273.1" />
            </Array>
          </mxGeometry>
        </mxCell>
        <mxCell id="bxoRWXklIdyRBiyPACr1-15" value="Orderer" style="whiteSpace=wrap;html=1;aspect=fixed;" vertex="1" parent="1">
          <mxGeometry x="1218" y="549.75" width="140" height="140" as="geometry" />
        </mxCell>
        <mxCell id="bxoRWXklIdyRBiyPACr1-35" style="edgeStyle=orthogonalEdgeStyle;rounded=0;orthogonalLoop=1;jettySize=auto;html=1;" edge="1" parent="1" source="bxoRWXklIdyRBiyPACr1-17" target="bxoRWXklIdyRBiyPACr1-13">
          <mxGeometry relative="1" as="geometry">
            <Array as="points">
              <mxPoint x="1100" y="750" />
              <mxPoint x="1354" y="750" />
            </Array>
          </mxGeometry>
        </mxCell>
        <mxCell id="bxoRWXklIdyRBiyPACr1-17" value="" style="whiteSpace=wrap;html=1;aspect=fixed;" vertex="1" parent="1">
          <mxGeometry x="1030" y="561.25" width="140" height="140" as="geometry" />
        </mxCell>
        <mxCell id="bxoRWXklIdyRBiyPACr1-18" value="fabric-peer" style="text;html=1;strokeColor=none;fillColor=none;align=center;verticalAlign=middle;whiteSpace=wrap;rounded=0;" vertex="1" parent="1">
          <mxGeometry x="1065" y="596.5" width="70" height="30" as="geometry" />
        </mxCell>
        <mxCell id="bxoRWXklIdyRBiyPACr1-19" value="fabric-CA" style="text;html=1;strokeColor=none;fillColor=none;align=center;verticalAlign=middle;whiteSpace=wrap;rounded=0;rotation=0;" vertex="1" parent="1">
          <mxGeometry x="1040" y="636" width="60" height="30" as="geometry" />
        </mxCell>
        <mxCell id="bxoRWXklIdyRBiyPACr1-20" value="Couch-DB" style="text;html=1;strokeColor=none;fillColor=none;align=center;verticalAlign=middle;whiteSpace=wrap;rounded=0;" vertex="1" parent="1">
          <mxGeometry x="1100" y="636" width="60" height="30" as="geometry" />
        </mxCell>
        <mxCell id="bxoRWXklIdyRBiyPACr1-21" value="" style="shape=image;verticalLabelPosition=bottom;labelBackgroundColor=default;verticalAlign=top;aspect=fixed;imageAspect=0;image=data:image/png,iVBORw0KGgoAAAANSUhEUgAAAT4AAACfCAMAAABX0UX9AAAA7VBMVEX///9cTuUAAABAQLJPP+RTROSzrvLX1fjm5uZXSORRQeQ0NK/08/3Pz+ouLq6MhOypqdllZWUbGxvFxcUgICCNjY2ioqJfX18/Pz+3t7dra2uDg4NFRUVMO+P29vYsLCw4ODja2tpXV1fPz8/q6uqampopKa28vLzV1dV5eXlJN+Pj4fo7O7HHw/VsYOesrKxNTU2qpPCTi+2cle6Gfeu4uN/f3flhU+b49/6vr9tmWebq6vZ0aeh+dOoQEBCinO/IxfW8uPNbW7scHKqBgchHR7VlZb6MjM1xccKfn9WEhMnSz/dBLOJPT7dubsI3sCFCAAAIqElEQVR4nO2dZ3vaOhhAbcCpgYwWwg5mmBlISdKmTZvd3Zv2/v+fcyVLlmVLXhgw3Lzn6Yd4IOSD5mvZVRQAAAAAAAAAAAAAAAAAAAAAAAAAAIC0uLhJOwc7zfvTh+u087DDHOW1/FPamdhdjvKqmnv7Ku1s7CpYn5pvH0ETuBSWPiQwd5F2TnYSqk9VNfUx7bzsIEwfagJvZ2nnZufg9Kn508v9tPOzY/D6UA0u7KWdod3CrU9VCx+f087SLuHVp6rtO2gCIyPqQ03gO5jHRUSiDzeBMI+LhlQfzOOi4qMPzePewzwuHD99WOBD2pnbfvz1oSYwf5Z29radIH2qegqzkGCC9RVAXzDh+vYSDmKuPq0mp1tJBH2nbz8sn/7sy9fXq8vt1hFBn5ZvHy1Zife/jebFl64PDWIKSwWjXxeL2Szow399fIyb9MF3JA/0aeTvdrxg9M2P0TwL+pi+WJGY659UHujT2KamRQxGfyoWs1nQ59GHdnyOEIw++HuYzYI+iT41374LicTc/GL1FvR59eEmMHBR0U+3PNCnefdqmu887opr9ECfXJ9vMPrgy6FXHuiT6FNl8zg8QxPtgT7poXzbM4/7LZX3P9d32V5SH15UxAWjr7JCo/cS9Clnqp+eMH14URENZc1kjd6L0KcoF23fChyiD9XgSzSIuf7Hp96mp28wMc2esZnvunnvJzBMn6qeolnIwchfXhr6jFaG0h9s5Atfvc0tqS+HRjAH/jWX1zfQ/VhtMTEzDhsqgMpTXmZppfqaGT+qq7wSnU95lQkHcv0uJ9bgleqbbkbfGy7hk1UmHMLsThjE7KA+g0/4zQoTDuf5Y2Hn9U1IkjXc6un6ChOOwp7mkrWDbd+YJLmZLlfg+pIfxKxU36JFqdxbV9it0O1peYUX0CD6NtXlCsxunUHMSvU5HFtX2FxL9tPWpyiPamG9+kprbNfT14fmcXQQszl9g0nZ9Bs+G579rEMwBnpPH7iP0rbPmwZKvzzxaxB7wjfqZll3bZqxGtP9I6sJ3JC+xTntQ44rdi7N4263e4y3es2MibrtDtq2qnuji930FtOu3fOUmmU7nX6/TvZ1MKUF3d+3Tz1f2LKHJXRCHf81ruMEz+v1esfqrqs10jafWHkZLJq0qRYkB/EBN4Eb0Vd29cJDfqep9PCVN+hg+B7Ju7dqZs/Td3etsjL0dumWvrFkn6JUaB0f44ZYp3kqK9UOd6qhLOrcZix/ylley21A38JzyS1O36JlKyWjnh4pcQP34Jjuk+gry3ZOOX1lUu4ntDvrus+s37s2O7H0KcrDn/Xrmwgiyo4+x6hr0IiutpPxcCIzNRHKHqbq6KM07NFAMPGKHxrEXK9dn9OC2X90BX3nHn3oavuyaxP0oX0yDYZX3zCavmWG9+vVRxuxEi5yeo1dtFvf1KMPnTxsVlFPahiG3ugwBaiDNKmWnhUJY+OYzLBnGL2qYyuw9N17XNq/7HQJfWenQXeTQvXNv14F6aMFhna4HfYjc/pquFvg9A29yZHddBTuGbi8cX4RxIBsnbj1VXBpZMaa4wHfpPQXOguCLTVS9Q9Gh+ubj/6VrOng9NX4S6cyp7y++sQ6wvS1xMHhlDlRWHGzj3XcxYb+Wganb0oSJPru7frZ5cyybNaW0acoz5/lwehQfYd/D2TpcfpOXAWKXHuf00eHGba+uiyGQrrnjkwf7aEb9qllr76O3R0cu75OIQOWlr3ZTKJPUZ40nxYwSF+x6LOontPnVFfMmJUjep2sryP570qTq4TqYzEJ2tQOmD6WyLErI6vTR9aUXr+T12B/ffPRT7+lRIK+bq2PqdW9+lhha7IjIvH16ZvTd6GSJX2SYHSQvtEP/4Vsgj43EfXp4wWhts369gr2kj4hGO2vr/hd2uhRVqHPO1nJHG+pPk3N5+iq5j3NW4Ol+oqHwfd2V6BPjPxvrz78cCVZ0rd/6WkCJfrmo28hT9GE6OsqofrK4qe2WZ+zpO/DbS5Y3+GX0AcYBH3NBsdirITqq+2aPuf5cteiIq++4lycZAgI+oSJRJg+crSvo1mbQU0E6Rvbn9v8wMWZ87IlfRfOHXW3vvnh7yhJcvpINivCKcH6DNfRYag+/2Ez+8L163OW9N0c2U0gr28++hXt/Qecvj4pRsIpwfoGzAKm6q/PbhzszRY7moY+Z0mfvaiI0+czQ5PA6Wt5NCEsKZH00aNB+uhkjzZ+tO5yIQP2rZvRh5f0kX6VzOOYvmIxQqNH4fSxuS2+T2ToZrVJLiFS22dFAkxqqESOePTZ0dLmeNIb26Md/A0p6cMC6aNZD6gGU31ohhYjST5cmhGwalqIPvsWBBeYk+tT3PF2AhcuZedtTJ/znrCbu3Yb6xtJw1L+8PqE2QOZfYXoqwqf8tNnimdaYZUU9aE6S98T9ownxAfzqI0exXWrSJw/4MIRNuuIrE/8fUg3n6o+VIPpPG7f+hePe16fWJK4YD3TR6LGdZYEf6eyYd/FxAj6FLPEJ24PYrz6Sm593fXqS/SeMCs8dc7yZgzZ3dT72pCE+CbnNcQ5u7df6aPNPnezYUDD8DWkY4wP0l/DnFq4vq88tQ322QhwgT9Tc8LvJE/s8NTaZMP5ihVQYzmOgf+tokhPp0YE3+WZxLwRODEn0Rfw6T3Td5HGOgm40wbvCQsn8EZl/jTBO15eBOH3eYEAQF8iQF8iQF8iQF8iQF8iQF8iQF8iQF8iQF8iQF8iQF8iQF8iQF8iQF8iQF8i9gJf0wT6Qti/DHqwA/SFMrv1fS4B9EXhUbKqGfTF4KLg858agb5I7B9JH+wAfVH5IHtPGOiLjuRViaAvDg/e94SBvlh4n04FfTF55Xo6FfTFhn86FfTFh3s6FfQtw+wuB/qSQJ9OBX3LspfTQF8C8NOpoC8Bs9s/oC8JT6APAAAAAAAAAAAAAAAAAAAAAAAAAABgE/wHz73dZ3B2WRQAAAAASUVORK5CYII=;" vertex="1" parent="1">
          <mxGeometry x="827" y="240" width="118" height="59" as="geometry" />
        </mxCell>
        <mxCell id="bxoRWXklIdyRBiyPACr1-23" value="" style="shape=image;verticalLabelPosition=bottom;labelBackgroundColor=default;verticalAlign=top;aspect=fixed;imageAspect=0;image=data:image/jpeg,/9j/4AAQSkZJRgABAQAAAQABAAD/2wCEAAkGBw8QEBIQEhIQEhUSFRUQFRIVEBcQFhIXFRgXFhkVFRMZHSgiGBolHRUWITEhJSkrLi4uFx8zODMsNygtLisBCgoKDg0OFRAQGi0dHR0tKy0tKystLS0rLS0tLSstLS0rLS0rKysrLSsrLSs3LS0rKy0rLS0rNy0tLS0rLS0tN//AABEIAOEA4QMBIgACEQEDEQH/xAAbAAEAAQUBAAAAAAAAAAAAAAAABwECBAUGA//EAEIQAAIBAgEIBgULAgYDAAAAAAABAgMEEQUGEiExQVFhIlJxgZGhEzJiscEHIzM0QnKCg5Ky0RTCFiSTouHwQ1Nz/8QAFwEBAQEBAAAAAAAAAAAAAAAAAAIBA//EABsRAQEBAQEBAQEAAAAAAAAAAAABAhExElFB/9oADAMBAAIRAxEAPwCcQAAAAAAAADDyjlShbx0qs1Hgtsn2RWtgZhZVqxinKUlFLW22kl3s4XKmfFSWMaEVBdeS0pd0di78Tl7u9q1njUnKb5vHDsW4qZRdxJN5nZZ09XpNN+wtJfq2Gnuc/V/46DfOc8P9qT95wwN+Yn7rqKufF09kaMeyLfvZ4f4yvetD/TRzwN5GfVdD/jK968P9NHrSz3u1tVKXbBr3NHMgch9V21tn69XpKHa4T90Wvibezzws6m2Uqb9uOrxWKIyBnzG/dTRQuIVFpQnGa4xkpLxR6kMW1zUpvShKUHxi2jpMl57V4YKslVj1vVmvgzLlU2kMGuyVlu3uV83NY74PoyXdv7UbElYAAAAAAAAAAAAAAAAWzmkm20ktbbeCXeeN/e06EHUqSUYrzfBLeyNs4s46t03FYwpJ6oY7cN8uL5bF5mydTdcb3L2eiWNO217nVa1fgW/tZxdxXnUk5TlKUntbeLPIFycc7bQAGsAAAAAAAAAAAAAF1Obi1KLaa1pp4NdjOuyFnnKGELjGcdnpEukvvL7Xbt7TjwZY2XiabevCpFThJSi9aaeKZ6ETZDy3WtJYweMX61NvVL+HzJMyTlSlc09Om+UovbF8GiLOOk11mgAxQAAAAAAAAY+UL2nQpyq1HhGPi3uSW9ntUqKKcpNJJYtvYkiLs58uSu6mrFU4aoR2Y+01xfkbJ1Orx45ey1Uu6mlLVFepDdFfF8zVgHRyAAAAAAAAAAAAAAAAAAAAAAzMlZSq21RVKbwe9bpLg0YYAl7I2Vad1SVSHZKL2xfB/wAmeRHkPK07Wqqkda2Tjukv54MlazuoVqcakHjGSxT+D5nOzjrnXXsADFAAAAGBl3KKtqE6r2rVFcZPYvj2Jgctn5lrX/SwezB1Gn3qHxfccUX1qkpycpPFybk3xb1tlh0k4429AAawAAAAAABiBUpijp81MgUq8HWq4yWk4xjjgtW+XE6ulkm2jso0/wBKfvJulTNqLUypJV1m/aVFrpRT60eg12YHA5asVb150dLSUcHFva01iseZsvWXPGECpQ1gAVAoAAAAAHUZk5a9DU9BN9Co9WL9Se7uezwOXKmEvE2A0uaeVv6m3Tk+nT6E+fCXevNM3Rzd4AAAR5n9lL0lZUE+jSWvnN6/JYeLO9vLhUqc6ktkIub7liQ7c15VJynLW5Nyfa9ZWYjdeQALcwFV/wB3mys8gXlX1aUkutNaC8wNYDrrPMSq9dWtGK6sI6b8Xhgb2yzQs6etwlUfGcsfLYT9RUzXJZDzZqXEVUlJU6b2asZS3Ypbkb2OZlthrnVb46SXlgb6Mow6CSSjqSSwSS3Jbi9VI8UTbVzMc1HMmjpYurV0eGCx/UbuzzYsqWDVJSfWk3N+D1eRkTrJczPo+quxDtb8xrrmOhLCPRWGpJYLwLFXfI2tSmpLBrExZWdPi13mNYjrSPaNhSqw+cpwnj1op+ZkUrSnt29pkpYAcxf5nWb1x06T9mWkvCWJr6eZNP7Vab7IpHV3tTBx7zyVaPE3tT8xy1fMmGHzdaSftRTXlrOXylYVLep6OosHtTWtSXFEoyrRW88p2FC5T9LTjLR1Jta1jwe42aZcfiKgd9eZjW8vo6lSm+fzi8H/ACaS8zLuoepoVV7MtF+D/krsR81zYMm6sa9H6SnOHOUGl47DGNYAADe5nZS9BcxTfQqfNy5Y+q+5+9koEJp4ayXMg33p7alV3uOEvvR6L80RqOmL/GwABK3N5+XWha6G+pJR7l0n7iNjsPlGuMatGn1YOffJ4f2+Zx50z45a9AAal0GY/wBb/Ln8CQ41muZHeZH1v8uXwJAI166Y8ZMayfI9EzCKxm1sZK1lzaNtyjrx3GN6CfVl4GxhccUe0Zp7ANZTs5vasFzNnGOCS4FQBj1568DyPK9xU8eR5qu+QGSjJoSxRq5VZM2Fiugu9gVurfSS4owZWs1u8NZtQ2Bqo2s3uw7TPtaGguLe0pUu4R59hiVb2T2aveBsJ1FHa0jFq36+ysfIwJSb26ygF19cSlTqYvVoy1fhZE9vVxST2kp3P0c/uS/ayJIbEXlz2zgedKpjqPQpAd58nV1jCrR6rU1+LU/ccGdFmHcaF4o/+yEoeC0v7fMy+Nz6ksAHN2RjnvV0ryfsqMfL/k0Bt863/na/3l+1GoOkcb6AA1jf5kfW/wAuXwJAI/zI+t/ly+BIBGvXTHgACVhQqAL41WuZ7RrJ8jGAGXOEZLXrMd2EOLLItrYen9S0tax8gLoWcFr29pfOrGO1pGvqXcny7DwAzat/1V3sxalaUtr7jzAAAAAABZc/Rz+5L9rIkhsRLdz9HP7kv2siSGxF5c9rjIpVMdW8xyuOBSGWbHN2ro3VCXtxXjq+Jq6VTHtMzJr+epf/AEh+5AiZAAcndFGdf12v97+1GpN3nlS0b2rz0ZeMUaQ6RxvoADWN/mR9b/Ll8CQCP8yPrf5cvgSARr10x4AAlYAAAAAFlb1WXllb1WBhgAAAAAAAAACy5+jn9yX7WRJDYiW7n6Of3JftZEkNiLy57XAApKqeBsclVMa1Lj6SH7ka0z8gU3K6oRW+pD34mCagAc3ZHfyhUNG5hPr01r5xbXuwOWJA+US10qNOp1JOL7Jr+Yoj86Txy16AA1Lf5kP/ADe1L5ufwJAIg/7wNjZZy3lvglP0kerNaS/VtRNnV51xJwOXydntbTwVVSovi05wfeta8DpKFeFRaUJRkuMXiiOLllegADQAACyt6rLyyt6rAwwAAAKgUAKgAYd/la3ofSVIp8F0pfpRzV/nm9lGml7U9vaor+TeMtkdZdPCnPd0JbdW5kTQ2Iy7zKFes8atRz5Y4RXZFajFKk456vQAFMDfZjUNO+pcI6U3y0YvDzaNCdx8mNp061bhFUk+16T90TL42epBABzdWDlyz9Pb1aW+UXo/eWuPmkRC0TYRbnfk/wBBdTwXRqfOR79q7nj4orKNz+tIAC3MDQAGNUhgXWt1VpS0qc5wfGMmvHie7WJjVIaJg6jJue9aGCrRjVXWj0JeGxnU5NzktK+CjUUZP7M+g/4fcRWMDLlU1U1gibJuXrq3wUKkml9mfSj3J7O46rJ2fVKWCr03B9aHTj4bV5k3K5qOvLK3qs8bK+o1lpU6kZr2Xi12raj2reqzFMMFTW3+XrajqlUUpdWPSffhsB1siytVjBaU5RilvbwXicXf541ZaqUI011pdOXhsXmc9c3NSq9KpOc3xk8fBbivlF27a/zvt4YqmpVXxXRj+p7e5HN3+cl1WxWn6OL3U+j4y2s1AK4m6tHtxet8doANYAAAAABLeZFj6Gzp4rpVMar/ABer/tw8yNMgZOdzcU6S2N4yfCK1yfh70TRGKSSWxakRqrxFQASsNBnnkv09u5RWM6XTjzX2l4a+434DLOoTKG/zwyP/AE9bSivm6jco+y98f45GgOrjZwAAFSjWIKgYk4YFpmTWJizjgBaAA1dTqSg9KLlFr7UW4vyN/Z543cIuMtCqsNTmsJLvW3vOeBnDrY5Qy5c18VOo0urDoR8tvea7AAAADQAAAAAAAAANrm1keV3XjT1qK6VSXCK+L2Adl8nOSPR0pXMl0qvRhygt/e/JI7ItpU1GKjFJKKSSW5LYi45V1k4AANAABh5WydC5pSpT3608MXGW6SInyhZToVJUprCUX3NbmuTJkNLnNkKN3T1YKpBPQlx9l8vcVKnWeosB63FCdOThNOMovBp7UeRbkAACpbOGJUqBiTjgWmXOOJiyjgBQABoAAAAAAAAAAABWEW2kk228Elrbb3JAX29CVScYQTlKT0UlvbJezZyLGzoqGpzlhKpLi+C5LYv+TW5mZs/00fTVV89JbNvo093bx8DqSLXTM4AAlQAAAAAAADR5yZvQu46SwjVS6M+Psy5e4jW9tKlGbp1IuMlufvT3rmTMa/LGSKN1DRqLWvVmtUo9j4cipU6z1EQNxlzN6vavGS04bqkVq/Evss05bkAAAWzhiXFQMOUcChlVIYmNJYAUAAaAAAAAABssi5Dr3csKcdS9ab1Rj2ve+SAwaFGU5KEIuUpPBRSxbZJeaWacbbCtWSlW3LaqfZxlzNjm9m5Qs49Hp1GsJVGtb5RX2VyNyRa6TIACVAAAAAAAAAAAAACkoppppNPU09afcctlnMulUxnRfopdXbB/GPu5HVA3rLOohylke4t3hUpyS6y1xfZJGATZKKawaTXB6zRZQzStKuLUHTk98Hgv07CppFx+IwB197mJWWulUhNcJYwfxT8jTXGbl5T20ZvDfHCa8mb2J5WpLakMTIq2tSPrQnHtg17zxNYxJRwKGTUhpFlO0qS9WE5dkXL3BrxBtbbNy9qYaNCpr3taC8ZYG6scwLmWDqzp01wTdSXlq82Z2HK5Ay8n5Mr3EtGlTlPmlqXbJ6kSRk7MezpYOalWa67wj+lan34nR0aUYJRjFRS2JLBLuRl0qYcXkTMKMcJ3MtJ7fRxeEfxS2vuwOzoUYU4qEIqMVqUUsEu49AT1cnAAGNAAAAAAAAAAAAAAAAAAAAAAAAedbYYoBrAyLcAD2ABjQAAAAAAAAAAAAAAAH//Z;" vertex="1" parent="1">
          <mxGeometry x="858.5" y="379.5" width="55" height="55" as="geometry" />
        </mxCell>
        <mxCell id="bxoRWXklIdyRBiyPACr1-24" style="rounded=0;orthogonalLoop=1;jettySize=auto;elbow=vertical;html=1;strokeColor=#808080;exitX=0.5;exitY=1;exitDx=0;exitDy=0;entryX=0.5;entryY=0;entryDx=0;entryDy=0;" edge="1" parent="1" source="bxoRWXklIdyRBiyPACr1-21" target="bxoRWXklIdyRBiyPACr1-23">
          <mxGeometry relative="1" as="geometry">
            <mxPoint x="1277" y="299" as="sourcePoint" />
            <mxPoint x="1430" y="331" as="targetPoint" />
          </mxGeometry>
        </mxCell>
        <mxCell id="bxoRWXklIdyRBiyPACr1-25" style="rounded=0;orthogonalLoop=1;jettySize=auto;elbow=vertical;html=1;strokeColor=#808080;exitX=0.5;exitY=1;exitDx=0;exitDy=0;entryX=0;entryY=0.5;entryDx=0;entryDy=0;" edge="1" parent="1" source="bxoRWXklIdyRBiyPACr1-23" target="bxoRWXklIdyRBiyPACr1-8">
          <mxGeometry relative="1" as="geometry">
            <mxPoint x="1277" y="299" as="sourcePoint" />
            <mxPoint x="1430" y="331" as="targetPoint" />
            <Array as="points">
              <mxPoint x="886" y="616" />
            </Array>
          </mxGeometry>
        </mxCell>
        <mxCell id="bxoRWXklIdyRBiyPACr1-26" style="rounded=0;orthogonalLoop=1;jettySize=auto;elbow=vertical;html=1;strokeColor=#808080;exitX=1;exitY=0.42;exitDx=0;exitDy=0;entryX=0;entryY=0.5;entryDx=0;entryDy=0;exitPerimeter=0;" edge="1" parent="1" source="bxoRWXklIdyRBiyPACr1-17" target="bxoRWXklIdyRBiyPACr1-15">
          <mxGeometry relative="1" as="geometry">
            <mxPoint x="1065" y="446" as="sourcePoint" />
            <mxPoint x="980" y="568" as="targetPoint" />
          </mxGeometry>
        </mxCell>
        <mxCell id="bxoRWXklIdyRBiyPACr1-29" value="Flow logs" style="sketch=0;outlineConnect=0;fontColor=#232F3E;gradientColor=none;strokeColor=#232F3E;fillColor=#ffffff;dashed=0;verticalLabelPosition=bottom;verticalAlign=top;align=center;html=1;fontSize=12;fontStyle=0;aspect=fixed;shape=mxgraph.aws4.resourceIcon;resIcon=mxgraph.aws4.flow_logs;" vertex="1" parent="1">
          <mxGeometry x="1460" y="245.5" width="60" height="60" as="geometry" />
        </mxCell>
        <mxCell id="bxoRWXklIdyRBiyPACr1-32" style="edgeStyle=orthogonalEdgeStyle;rounded=0;orthogonalLoop=1;jettySize=auto;html=1;" edge="1" parent="1" source="bxoRWXklIdyRBiyPACr1-30" target="bxoRWXklIdyRBiyPACr1-8">
          <mxGeometry relative="1" as="geometry" />
        </mxCell>
        <mxCell id="bxoRWXklIdyRBiyPACr1-33" style="edgeStyle=orthogonalEdgeStyle;rounded=0;orthogonalLoop=1;jettySize=auto;html=1;" edge="1" parent="1" source="bxoRWXklIdyRBiyPACr1-30" target="bxoRWXklIdyRBiyPACr1-15">
          <mxGeometry relative="1" as="geometry" />
        </mxCell>
        <mxCell id="bxoRWXklIdyRBiyPACr1-34" style="edgeStyle=orthogonalEdgeStyle;rounded=0;orthogonalLoop=1;jettySize=auto;html=1;" edge="1" parent="1" source="bxoRWXklIdyRBiyPACr1-30" target="bxoRWXklIdyRBiyPACr1-29">
          <mxGeometry relative="1" as="geometry" />
        </mxCell>
        <mxCell id="bxoRWXklIdyRBiyPACr1-30" value="" style="sketch=0;aspect=fixed;html=1;points=[];align=center;image;fontSize=12;image=img/lib/mscae/Docker.svg;" vertex="1" parent="1">
          <mxGeometry x="1140" y="255" width="50" height="41" as="geometry" />
        </mxCell>
        <mxCell id="bxoRWXklIdyRBiyPACr1-36" value="MONITORING" style="whiteSpace=wrap;html=1;gradientColor=none;fillColor=none;" vertex="1" parent="1">
          <mxGeometry x="1030" y="770" width="410" height="200" as="geometry" />
        </mxCell>
        <mxCell id="bxoRWXklIdyRBiyPACr1-37" value="Flow logs" style="sketch=0;outlineConnect=0;fontColor=#232F3E;gradientColor=none;strokeColor=#232F3E;fillColor=#ffffff;dashed=0;verticalLabelPosition=bottom;verticalAlign=top;align=center;html=1;fontSize=12;fontStyle=0;aspect=fixed;shape=mxgraph.aws4.resourceIcon;resIcon=mxgraph.aws4.flow_logs;" vertex="1" parent="1">
          <mxGeometry x="1080" y="822.8" width="60" height="60" as="geometry" />
        </mxCell>
      </root>
    </mxGraphModel>
  </diagram>
</mxfile>
